<svg width="65" height="76" viewBox="0 0 65 76" fill="none" xmlns="http://www.w3.org/2000/svg">
<g opacity="0.9">
<path d="M23.1162 23.0434V53.9399H63.9139V25.6901V12.8299L54.412 3.21094L43.5151 3.21094H23.1162L23.1162 10.4325M54.412 6.16691V12.8299H63.0426M23.1162 13.5852V16.7379V19.8907" stroke="#333333" stroke-width="2" stroke-linecap="round" stroke-linejoin="round"/>
<path d="M49.3755 10.1064L46.6791 10.1064" stroke="#333333" stroke-width="2" stroke-linecap="round"/>
<path d="M43.1353 10.1064L28.9447 10.1064" stroke="#333333" stroke-width="2" stroke-linecap="round"/>
<path d="M56.8191 17.6943H28.9448" stroke="#333333" stroke-width="2" stroke-linecap="round"/>
<path d="M28.9448 25.2822H56.8191" stroke="#333333" stroke-width="2" stroke-linecap="round"/>
<path d="M15.6421 12.9229H47.0227L56.4398 22.2604V61.1223H15.6421V12.9229Z" fill="#E5E2E2"/>
<path d="M15.6421 32.7543V63.6508H56.4398V35.4011V22.5408L46.9379 12.9219L36.041 12.9219H15.6421L15.6421 20.1434M46.9379 15.8778V22.5408H55.5685M15.6421 23.2961V26.4489V29.6016" stroke="#333333" stroke-width="2" stroke-linecap="round" stroke-linejoin="round"/>
<path d="M41.9009 19.8174L39.2045 19.8174" stroke="#333333" stroke-width="2" stroke-linecap="round"/>
<path d="M35.6611 19.8174L21.4706 19.8174" stroke="#333333" stroke-width="2" stroke-linecap="round"/>
<path d="M49.345 27.4053H21.4707" stroke="#333333" stroke-width="2" stroke-linecap="round"/>
<path d="M21.4707 34.9932H49.345" stroke="#333333" stroke-width="2" stroke-linecap="round"/>
<path d="M1.89893 71.891V30.9238C1.89893 29.267 3.24208 27.9238 4.89894 27.9238L26.7289 27.9239C27.8249 27.9239 28.8337 28.5217 29.3602 29.483L33.4809 37.0078C34.0074 37.9691 35.0162 38.5669 36.1122 38.5669H56.9284C58.5853 38.5669 59.9284 39.91 59.9284 41.5669V71.891C59.9284 73.5479 58.5853 74.891 56.9284 74.891H4.89893C3.24207 74.891 1.89893 73.5479 1.89893 71.891Z" fill="#FFE071" stroke="#333333" stroke-width="2" stroke-linejoin="round"/>
<path d="M52.5503 41.3348L48.0285 49.0067L44.1742 55.5461C42.4035 58.5504 38.5326 59.5504 35.5283 57.7797V57.7797C32.524 56.009 31.524 52.1381 33.2947 49.1338L41.9524 34.4448C43.1989 32.3298 45.924 31.6258 48.039 32.8723L48.8738 33.3643C50.5278 34.3392 51.0783 36.4703 50.1035 38.1242V38.1242L42.1202 51.6691C41.4623 52.7853 40.0242 53.1568 38.908 52.499V52.499C37.7918 51.8411 37.4203 50.403 38.0782 49.2868L41.0874 44.1811L43.1877 40.6177L44.2378 38.836" stroke="white" stroke-width="2"/>
<path d="M50.104 38.1236L42.1208 51.6684C41.4629 52.7846 40.0248 53.1561 38.9086 52.4983V52.4983C37.7924 51.8404 37.4209 50.4023 38.0787 49.2861L41.088 44.1804L43.1882 40.617L44.2383 38.8353" stroke="#FFC24B" stroke-width="2"/>
<path d="M42.3511 38.5615L52.7242 38.5615" stroke="#333333" stroke-width="2"/>
<path d="M7.82178 1L12.6709 5.84912" stroke="#FE4949" stroke-width="2" stroke-linecap="round"/>
<path d="M1 9.3125L7.46519 10.9286" stroke="#FE4949" stroke-width="2" stroke-linecap="round"/>
</g>
</svg>
