<svg width="275" height="100" viewBox="0 0 275 100" fill="none" xmlns="http://www.w3.org/2000/svg">
<path d="M61 27.7734L121 27.7734" stroke="#FFBC39" stroke-width="2" stroke-linecap="round"/>
<rect x="122" y="13.7734" width="28" height="28" rx="6" fill="#FFBC39"/>
<path d="M127.71 26.6534L133.983 32.9267L144.29 22.6206" stroke="#FFFBDC" stroke-width="4"/>
<rect x="122" y="13.7734" width="28" height="28" rx="6" stroke="#FFBC39" stroke-width="2"/>
<rect x="31" y="12.7734" width="30" height="30" rx="7" fill="#FFE071"/>
<path d="M37.7102 26.6534L43.9835 32.9267L54.2896 22.6206" stroke="#FFFBDC" stroke-width="4"/>
<path d="M151 27.7734L211 27.7734" stroke="#FE4949" stroke-width="2" stroke-linecap="round"/>
<rect x="212" y="13.7734" width="28" height="28" rx="6" fill="#FE4949"/>
<path d="M217.71 26.6534L223.983 32.9267L234.29 22.6206" stroke="#FFFBDC" stroke-width="4"/>
<rect x="212" y="13.7734" width="28" height="28" rx="6" stroke="#FE4949" stroke-width="2"/>
<path d="M29.9063 48.3361C30.9863 48.3361 31.8913 48.5211 32.6213 48.8911C32.8413 49.0011 32.9813 49.1661 33.0413 49.3861C33.1013 49.6061 33.0713 49.8261 32.9513 50.0461C32.8313 50.2761 32.6763 50.4211 32.4863 50.4811C32.2963 50.5311 32.0963 50.5111 31.8863 50.4211C31.5663 50.2811 31.2613 50.1861 30.9713 50.1361C30.6813 50.0761 30.3363 50.0461 29.9363 50.0461C29.6063 50.0461 29.3163 50.0861 29.0663 50.1661C28.8263 50.2361 28.6213 50.3361 28.4513 50.4661C28.2813 50.5861 28.1513 50.7261 28.0613 50.8861C27.9813 51.0361 27.9413 51.1911 27.9413 51.3511V51.4411C27.9413 51.6311 27.9713 51.7961 28.0313 51.9361C28.1013 52.0761 28.2163 52.2061 28.3763 52.3261C28.5463 52.4361 28.7763 52.5411 29.0663 52.6411C29.3563 52.7311 29.7313 52.8211 30.1913 52.9111C31.4413 53.1711 32.3363 53.5561 32.8763 54.0661C33.4163 54.5761 33.6863 55.2311 33.6863 56.0311V56.1661C33.6863 57.1961 33.3513 57.9811 32.6813 58.5211C32.0113 59.0611 31.0213 59.3311 29.7113 59.3311C29.0913 59.3311 28.4863 59.2561 27.8963 59.1061C27.3163 58.9461 26.8263 58.7411 26.4263 58.4911C26.1863 58.3411 26.0513 58.1511 26.0213 57.9211C25.9913 57.6811 26.0463 57.4561 26.1863 57.2461C26.3263 57.0261 26.4963 56.8911 26.6963 56.8411C26.8963 56.7911 27.1113 56.8311 27.3413 56.9611C27.6913 57.1611 28.0763 57.3211 28.4963 57.4411C28.9163 57.5511 29.3513 57.6061 29.8013 57.6061C30.4913 57.6061 30.9913 57.4861 31.3013 57.2461C31.6113 56.9961 31.7663 56.6861 31.7663 56.3161V56.2111C31.7663 55.7911 31.6013 55.4661 31.2713 55.2361C30.9513 54.9961 30.4313 54.8061 29.7113 54.6661C29.0813 54.5461 28.5363 54.4061 28.0763 54.2461C27.6163 54.0861 27.2313 53.8861 26.9213 53.6461C26.6213 53.3961 26.3963 53.1011 26.2463 52.7611C26.1063 52.4111 26.0363 51.9861 26.0363 51.4861V51.3811C26.0363 50.9611 26.1163 50.5661 26.2763 50.1961C26.4463 49.8261 26.6963 49.5061 27.0263 49.2361C27.3563 48.9561 27.7613 48.7361 28.2413 48.5761C28.7213 48.4161 29.2763 48.3361 29.9063 48.3361ZM37.076 48.9961C37.326 48.9961 37.546 49.0611 37.736 49.1911C37.926 49.3211 38.021 49.5261 38.021 49.8061V51.2011H39.596C39.826 51.2011 39.991 51.2811 40.091 51.4411C40.201 51.5911 40.256 51.7711 40.256 51.9811C40.256 52.1911 40.201 52.3761 40.091 52.5361C39.991 52.6861 39.826 52.7611 39.596 52.7611H38.021V56.7211C38.021 57.3611 38.266 57.6811 38.756 57.6811C38.986 57.6811 39.216 57.6411 39.446 57.5611C39.606 57.5111 39.766 57.5211 39.926 57.5911C40.086 57.6611 40.206 57.8161 40.286 58.0561C40.356 58.2661 40.356 58.4611 40.286 58.6411C40.226 58.8211 40.101 58.9511 39.911 59.0311C39.731 59.1111 39.526 59.1761 39.296 59.2261C39.066 59.2661 38.831 59.2861 38.591 59.2861C37.701 59.2861 37.066 59.0661 36.686 58.6261C36.316 58.1761 36.131 57.5111 36.131 56.6311V52.7611H35.381C35.151 52.7611 34.981 52.6861 34.871 52.5361C34.771 52.3761 34.721 52.1911 34.721 51.9811C34.721 51.7711 34.771 51.5911 34.871 51.4411C34.981 51.2811 35.151 51.2011 35.381 51.2011H36.131V49.8061C36.131 49.5261 36.226 49.3211 36.416 49.1911C36.606 49.0611 36.826 48.9961 37.076 48.9961ZM45.1022 52.5811C44.4722 52.5811 43.9972 52.7461 43.6772 53.0761C43.3672 53.4061 43.2122 53.8261 43.2122 54.3361V54.4411H46.9322V54.2911C46.9322 53.8011 46.7922 53.3961 46.5122 53.0761C46.2322 52.7461 45.7622 52.5811 45.1022 52.5811ZM45.1322 51.0211C45.6722 51.0211 46.1622 51.1011 46.6022 51.2611C47.0422 51.4211 47.4222 51.6511 47.7422 51.9511C48.0622 52.2511 48.3072 52.6211 48.4772 53.0611C48.6572 53.5011 48.7472 54.0061 48.7472 54.5761V54.6061C48.7472 55.0761 48.6522 55.4011 48.4622 55.5811C48.2822 55.7611 47.9522 55.8511 47.4722 55.8511H43.2122V55.8811C43.2122 56.4211 43.3772 56.8611 43.7072 57.2011C44.0472 57.5411 44.5522 57.7111 45.2222 57.7111C45.6422 57.7111 46.0072 57.6811 46.3172 57.6211C46.6372 57.5511 46.9622 57.4411 47.2922 57.2911C47.4922 57.2011 47.6872 57.1911 47.8772 57.2611C48.0672 57.3211 48.2072 57.4561 48.2972 57.6661C48.3872 57.8761 48.4072 58.0811 48.3572 58.2811C48.3072 58.4711 48.1822 58.6161 47.9822 58.7161C47.6022 58.9061 47.1872 59.0511 46.7372 59.1511C46.2872 59.2411 45.7572 59.2861 45.1472 59.2861C43.9472 59.2861 43.0172 58.9611 42.3572 58.3111C41.6972 57.6511 41.3672 56.6661 41.3672 55.3561V54.9661C41.3672 53.6661 41.7022 52.6861 42.3722 52.0261C43.0422 51.3561 43.9622 51.0211 45.1322 51.0211ZM54.6877 51.0211C55.7777 51.0211 56.5877 51.3561 57.1177 52.0261C57.6477 52.6861 57.9127 53.6611 57.9127 54.9511V55.3411C57.9127 55.9911 57.8327 56.5661 57.6727 57.0661C57.5127 57.5561 57.2877 57.9661 56.9977 58.2961C56.7077 58.6261 56.3577 58.8761 55.9477 59.0461C55.5477 59.2061 55.0977 59.2861 54.5977 59.2861C54.0877 59.2861 53.6527 59.2011 53.2927 59.0311C52.9327 58.8511 52.6427 58.6161 52.4227 58.3261V61.3711C52.4227 61.6411 52.3277 61.8411 52.1377 61.9711C51.9477 62.1011 51.7277 62.1661 51.4777 62.1661C51.2377 62.1661 51.0177 62.1011 50.8177 61.9711C50.6277 61.8411 50.5327 61.6411 50.5327 61.3711V51.8761C50.5327 51.6161 50.6227 51.4261 50.8027 51.3061C50.9927 51.1761 51.2027 51.1111 51.4327 51.1111C51.6727 51.1111 51.8827 51.1761 52.0627 51.3061C52.2527 51.4261 52.3477 51.6161 52.3477 51.8761V52.1011C52.4877 51.8911 52.6527 51.7161 52.8427 51.5761C53.0327 51.4361 53.2327 51.3261 53.4427 51.2461C53.6527 51.1661 53.8627 51.1111 54.0727 51.0811C54.2827 51.0411 54.4877 51.0211 54.6877 51.0211ZM54.3127 52.6411C53.6827 52.6411 53.2027 52.8261 52.8727 53.1961C52.5527 53.5561 52.3927 54.0211 52.3927 54.5911V55.9861C52.3927 56.1961 52.4427 56.4011 52.5427 56.6011C52.6427 56.8011 52.7777 56.9811 52.9477 57.1411C53.1177 57.3011 53.3227 57.4311 53.5627 57.5311C53.8027 57.6311 54.0677 57.6811 54.3577 57.6811C55.4777 57.6811 56.0377 56.8861 56.0377 55.2961V54.9961C56.0377 54.2161 55.9077 53.6311 55.6477 53.2411C55.3877 52.8411 54.9427 52.6411 54.3127 52.6411ZM64.2769 48.4111C64.5669 48.4111 64.8069 48.4761 64.9969 48.6061C65.1869 48.7361 65.2819 48.9461 65.2819 49.2361V58.4311C65.2819 58.7211 65.1869 58.9311 64.9969 59.0611C64.8069 59.1911 64.5819 59.2561 64.3219 59.2561C64.0619 59.2561 63.8369 59.1911 63.6469 59.0611C63.4569 58.9311 63.3619 58.7211 63.3619 58.4311V50.6611L61.4269 51.7711C61.1769 51.9111 60.9419 51.9411 60.7219 51.8611C60.5019 51.7711 60.3319 51.6161 60.2119 51.3961C60.1019 51.1961 60.0669 50.9811 60.1069 50.7511C60.1469 50.5211 60.2819 50.3411 60.5119 50.2111L63.0469 48.8011C63.3069 48.6611 63.5319 48.5611 63.7219 48.5011C63.9119 48.4411 64.0969 48.4111 64.2769 48.4111Z" fill="#FFE071"/>
<path d="M37.0472 71.3361V72.7761C37.0472 73.1601 37.0652 73.5081 37.1012 73.8201C37.1492 74.1321 37.2212 74.4201 37.3172 74.6841C37.4252 74.9481 37.5632 75.2061 37.7312 75.4581C37.8992 75.6981 38.1092 75.9441 38.3612 76.1961C38.7092 76.5441 39.0452 76.8741 39.3692 77.1861C39.6932 77.4981 39.9812 77.7621 40.2332 77.9781C40.4612 78.1821 40.5512 78.4221 40.5032 78.6981C40.4672 78.9741 40.3592 79.2081 40.1792 79.4001C39.9992 79.5801 39.7772 79.7001 39.5132 79.7601C39.2492 79.8081 39.0092 79.7361 38.7932 79.5441C38.5772 79.3521 38.3252 79.1181 38.0372 78.8421C37.7492 78.5661 37.4432 78.2661 37.1192 77.9421C36.6512 77.4741 36.3392 77.1201 36.1832 76.8801C36.0272 76.6281 35.9312 76.4181 35.8952 76.2501H35.8772C35.8532 76.3581 35.8172 76.4661 35.7692 76.5741C35.7332 76.6701 35.6672 76.7901 35.5712 76.9341C35.4872 77.0661 35.3672 77.2221 35.2112 77.4021C35.0552 77.5701 34.8632 77.7681 34.6352 77.9961C34.3112 78.3201 33.9872 78.6381 33.6632 78.9501C33.3392 79.2621 33.0152 79.5561 32.6912 79.8321C32.5712 79.9281 32.4452 79.9881 32.3132 80.0121C32.1812 80.0361 32.0492 80.0361 31.9172 80.0121C31.7972 79.9761 31.6772 79.9281 31.5572 79.8681C31.4492 79.7961 31.3532 79.7121 31.2692 79.6161C31.0892 79.4121 30.9932 79.1721 30.9812 78.8961C30.9692 78.6201 31.0772 78.3801 31.3052 78.1761C32.0252 77.5521 32.7212 76.8921 33.3932 76.1961C33.6452 75.9441 33.8552 75.6981 34.0232 75.4581C34.1912 75.2061 34.3232 74.9481 34.4192 74.6841C34.5272 74.4201 34.5992 74.1321 34.6352 73.8201C34.6832 73.5081 34.7072 73.1601 34.7072 72.7761V71.3361H32.0792C31.8032 71.3361 31.5992 71.2401 31.4672 71.0481C31.3352 70.8561 31.2692 70.6281 31.2692 70.3641C31.2692 70.0881 31.3352 69.8541 31.4672 69.6621C31.5992 69.4701 31.8032 69.3741 32.0792 69.3741H39.5312C39.8072 69.3741 40.0112 69.4701 40.1432 69.6621C40.2752 69.8541 40.3412 70.0881 40.3412 70.3641C40.3412 70.6281 40.2752 70.8561 40.1432 71.0481C40.0112 71.2401 39.8072 71.3361 39.5312 71.3361H37.0472ZM40.0532 75.2421C39.7772 75.2421 39.5732 75.1461 39.4412 74.9541C39.3092 74.7621 39.2432 74.5341 39.2432 74.2701C39.2432 73.9941 39.3092 73.7601 39.4412 73.5681C39.5732 73.3761 39.7772 73.2801 40.0532 73.2801H42.3032V69.1041C42.3032 68.7681 42.4172 68.5221 42.6452 68.3661C42.8852 68.2101 43.1552 68.1321 43.4552 68.1321C43.7432 68.1321 44.0012 68.2101 44.2292 68.3661C44.4692 68.5221 44.5892 68.7681 44.5892 69.1041V82.8921C44.5892 83.2281 44.4692 83.4741 44.2292 83.6301C44.0012 83.7861 43.7432 83.8641 43.4552 83.8641C43.1552 83.8641 42.8852 83.7861 42.6452 83.6301C42.4172 83.4741 42.3032 83.2281 42.3032 82.8921V75.2421H40.0532ZM53.196 70.9941V71.4441C53.196 71.9961 53.28 72.4581 53.448 72.8301C53.616 73.2021 53.892 73.5501 54.276 73.8741C54.672 74.1981 55.038 74.4921 55.374 74.7561C55.722 75.0081 56.028 75.2301 56.292 75.4221C56.544 75.6021 56.676 75.8241 56.688 76.0881C56.7 76.3401 56.622 76.5801 56.454 76.8081C56.382 76.9041 56.298 76.9941 56.202 77.0781C56.106 77.1501 55.992 77.2041 55.86 77.2401C55.74 77.2761 55.608 77.2881 55.464 77.2761C55.332 77.2521 55.194 77.1921 55.05 77.0961C54.846 76.9521 54.588 76.7661 54.276 76.5381C53.976 76.2981 53.646 76.0341 53.286 75.7461C52.854 75.3981 52.554 75.1281 52.386 74.9361C52.23 74.7441 52.128 74.5641 52.08 74.3961H52.062C52.014 74.6001 51.9 74.8101 51.72 75.0261C51.54 75.2421 51.234 75.5241 50.802 75.8721C50.106 76.4241 49.41 76.9461 48.714 77.4381C48.45 77.6301 48.186 77.6781 47.922 77.5821C47.658 77.4741 47.46 77.3241 47.328 77.1321C47.172 76.9161 47.094 76.6701 47.094 76.3941C47.094 76.1181 47.232 75.8841 47.508 75.6921C47.916 75.4041 48.3 75.1221 48.66 74.8461C49.032 74.5701 49.416 74.2701 49.812 73.9461C50.196 73.6221 50.472 73.2741 50.64 72.9021C50.808 72.5301 50.892 72.0681 50.892 71.5161V70.9941H48.21C47.934 70.9941 47.73 70.8981 47.598 70.7061C47.466 70.5141 47.4 70.2861 47.4 70.0221C47.4 69.7581 47.466 69.5301 47.598 69.3381C47.73 69.1461 47.934 69.0501 48.21 69.0501H55.698C55.974 69.0501 56.178 69.1461 56.31 69.3381C56.442 69.5301 56.508 69.7581 56.508 70.0221C56.508 70.2861 56.442 70.5141 56.31 70.7061C56.178 70.8981 55.974 70.9941 55.698 70.9941H53.196ZM61.782 72.0021C62.07 72.0021 62.28 72.0981 62.412 72.2901C62.544 72.4821 62.61 72.7161 62.61 72.9921C62.61 73.2681 62.544 73.5081 62.412 73.7121C62.28 73.9041 62.07 74.0001 61.782 74.0001H60.09V77.0781C60.09 77.4141 59.97 77.6601 59.73 77.8161C59.502 77.9721 59.238 78.0501 58.938 78.0501C58.638 78.0501 58.368 77.9721 58.128 77.8161C57.9 77.6601 57.786 77.4141 57.786 77.0781V69.1041C57.786 68.7681 57.9 68.5221 58.128 68.3661C58.368 68.2101 58.638 68.1321 58.938 68.1321C59.238 68.1321 59.502 68.2101 59.73 68.3661C59.97 68.5221 60.09 68.7681 60.09 69.1041V72.0021H61.782ZM49.524 81.6501C49.524 80.4861 49.992 79.6161 50.928 79.0401C51.876 78.4521 53.178 78.1581 54.834 78.1581C56.49 78.1581 57.786 78.4521 58.722 79.0401C59.67 79.6161 60.144 80.4861 60.144 81.6501C60.144 82.8261 59.67 83.7021 58.722 84.2781C57.786 84.8541 56.49 85.1421 54.834 85.1421C53.178 85.1421 51.876 84.8541 50.928 84.2781C49.992 83.7021 49.524 82.8261 49.524 81.6501ZM57.858 81.6501C57.858 81.1581 57.624 80.7621 57.156 80.4621C56.7 80.1501 55.926 79.9941 54.834 79.9941C54.282 79.9941 53.814 80.0361 53.43 80.1201C53.046 80.1921 52.734 80.3001 52.494 80.4441C52.254 80.5881 52.08 80.7621 51.972 80.9661C51.864 81.1701 51.81 81.3981 51.81 81.6501C51.81 81.9021 51.864 82.1301 51.972 82.3341C52.08 82.5381 52.254 82.7121 52.494 82.8561C52.734 83.0001 53.046 83.1081 53.43 83.1801C53.814 83.2641 54.282 83.3061 54.834 83.3061C55.926 83.3061 56.7 83.1501 57.156 82.8381C57.624 82.5381 57.858 82.1421 57.858 81.6501Z" fill="black"/>
<path d="M120.906 48.3361C121.986 48.3361 122.891 48.5211 123.621 48.8911C123.841 49.0011 123.981 49.1661 124.041 49.3861C124.101 49.6061 124.071 49.8261 123.951 50.0461C123.831 50.2761 123.676 50.4211 123.486 50.4811C123.296 50.5311 123.096 50.5111 122.886 50.4211C122.566 50.2811 122.261 50.1861 121.971 50.1361C121.681 50.0761 121.336 50.0461 120.936 50.0461C120.606 50.0461 120.316 50.0861 120.066 50.1661C119.826 50.2361 119.621 50.3361 119.451 50.4661C119.281 50.5861 119.151 50.7261 119.061 50.8861C118.981 51.0361 118.941 51.1911 118.941 51.3511V51.4411C118.941 51.6311 118.971 51.7961 119.031 51.9361C119.101 52.0761 119.216 52.2061 119.376 52.3261C119.546 52.4361 119.776 52.5411 120.066 52.6411C120.356 52.7311 120.731 52.8211 121.191 52.9111C122.441 53.1711 123.336 53.5561 123.876 54.0661C124.416 54.5761 124.686 55.2311 124.686 56.0311V56.1661C124.686 57.1961 124.351 57.9811 123.681 58.5211C123.011 59.0611 122.021 59.3311 120.711 59.3311C120.091 59.3311 119.486 59.2561 118.896 59.1061C118.316 58.9461 117.826 58.7411 117.426 58.4911C117.186 58.3411 117.051 58.1511 117.021 57.9211C116.991 57.6811 117.046 57.4561 117.186 57.2461C117.326 57.0261 117.496 56.8911 117.696 56.8411C117.896 56.7911 118.111 56.8311 118.341 56.9611C118.691 57.1611 119.076 57.3211 119.496 57.4411C119.916 57.5511 120.351 57.6061 120.801 57.6061C121.491 57.6061 121.991 57.4861 122.301 57.2461C122.611 56.9961 122.766 56.6861 122.766 56.3161V56.2111C122.766 55.7911 122.601 55.4661 122.271 55.2361C121.951 54.9961 121.431 54.8061 120.711 54.6661C120.081 54.5461 119.536 54.4061 119.076 54.2461C118.616 54.0861 118.231 53.8861 117.921 53.6461C117.621 53.3961 117.396 53.1011 117.246 52.7611C117.106 52.4111 117.036 51.9861 117.036 51.4861V51.3811C117.036 50.9611 117.116 50.5661 117.276 50.1961C117.446 49.8261 117.696 49.5061 118.026 49.2361C118.356 48.9561 118.761 48.7361 119.241 48.5761C119.721 48.4161 120.276 48.3361 120.906 48.3361ZM128.076 48.9961C128.326 48.9961 128.546 49.0611 128.736 49.1911C128.926 49.3211 129.021 49.5261 129.021 49.8061V51.2011H130.596C130.826 51.2011 130.991 51.2811 131.091 51.4411C131.201 51.5911 131.256 51.7711 131.256 51.9811C131.256 52.1911 131.201 52.3761 131.091 52.5361C130.991 52.6861 130.826 52.7611 130.596 52.7611H129.021V56.7211C129.021 57.3611 129.266 57.6811 129.756 57.6811C129.986 57.6811 130.216 57.6411 130.446 57.5611C130.606 57.5111 130.766 57.5211 130.926 57.5911C131.086 57.6611 131.206 57.8161 131.286 58.0561C131.356 58.2661 131.356 58.4611 131.286 58.6411C131.226 58.8211 131.101 58.9511 130.911 59.0311C130.731 59.1111 130.526 59.1761 130.296 59.2261C130.066 59.2661 129.831 59.2861 129.591 59.2861C128.701 59.2861 128.066 59.0661 127.686 58.6261C127.316 58.1761 127.131 57.5111 127.131 56.6311V52.7611H126.381C126.151 52.7611 125.981 52.6861 125.871 52.5361C125.771 52.3761 125.721 52.1911 125.721 51.9811C125.721 51.7711 125.771 51.5911 125.871 51.4411C125.981 51.2811 126.151 51.2011 126.381 51.2011H127.131V49.8061C127.131 49.5261 127.226 49.3211 127.416 49.1911C127.606 49.0611 127.826 48.9961 128.076 48.9961ZM136.102 52.5811C135.472 52.5811 134.997 52.7461 134.677 53.0761C134.367 53.4061 134.212 53.8261 134.212 54.3361V54.4411H137.932V54.2911C137.932 53.8011 137.792 53.3961 137.512 53.0761C137.232 52.7461 136.762 52.5811 136.102 52.5811ZM136.132 51.0211C136.672 51.0211 137.162 51.1011 137.602 51.2611C138.042 51.4211 138.422 51.6511 138.742 51.9511C139.062 52.2511 139.307 52.6211 139.477 53.0611C139.657 53.5011 139.747 54.0061 139.747 54.5761V54.6061C139.747 55.0761 139.652 55.4011 139.462 55.5811C139.282 55.7611 138.952 55.8511 138.472 55.8511H134.212V55.8811C134.212 56.4211 134.377 56.8611 134.707 57.2011C135.047 57.5411 135.552 57.7111 136.222 57.7111C136.642 57.7111 137.007 57.6811 137.317 57.6211C137.637 57.5511 137.962 57.4411 138.292 57.2911C138.492 57.2011 138.687 57.1911 138.877 57.2611C139.067 57.3211 139.207 57.4561 139.297 57.6661C139.387 57.8761 139.407 58.0811 139.357 58.2811C139.307 58.4711 139.182 58.6161 138.982 58.7161C138.602 58.9061 138.187 59.0511 137.737 59.1511C137.287 59.2411 136.757 59.2861 136.147 59.2861C134.947 59.2861 134.017 58.9611 133.357 58.3111C132.697 57.6511 132.367 56.6661 132.367 55.3561V54.9661C132.367 53.6661 132.702 52.6861 133.372 52.0261C134.042 51.3561 134.962 51.0211 136.132 51.0211ZM145.688 51.0211C146.778 51.0211 147.588 51.3561 148.118 52.0261C148.648 52.6861 148.913 53.6611 148.913 54.9511V55.3411C148.913 55.9911 148.833 56.5661 148.673 57.0661C148.513 57.5561 148.288 57.9661 147.998 58.2961C147.708 58.6261 147.358 58.8761 146.948 59.0461C146.548 59.2061 146.098 59.2861 145.598 59.2861C145.088 59.2861 144.653 59.2011 144.293 59.0311C143.933 58.8511 143.643 58.6161 143.423 58.3261V61.3711C143.423 61.6411 143.328 61.8411 143.138 61.9711C142.948 62.1011 142.728 62.1661 142.478 62.1661C142.238 62.1661 142.018 62.1011 141.818 61.9711C141.628 61.8411 141.533 61.6411 141.533 61.3711V51.8761C141.533 51.6161 141.623 51.4261 141.803 51.3061C141.993 51.1761 142.203 51.1111 142.433 51.1111C142.673 51.1111 142.883 51.1761 143.063 51.3061C143.253 51.4261 143.348 51.6161 143.348 51.8761V52.1011C143.488 51.8911 143.653 51.7161 143.843 51.5761C144.033 51.4361 144.233 51.3261 144.443 51.2461C144.653 51.1661 144.863 51.1111 145.073 51.0811C145.283 51.0411 145.488 51.0211 145.688 51.0211ZM145.313 52.6411C144.683 52.6411 144.203 52.8261 143.873 53.1961C143.553 53.5561 143.393 54.0211 143.393 54.5911V55.9861C143.393 56.1961 143.443 56.4011 143.543 56.6011C143.643 56.8011 143.778 56.9811 143.948 57.1411C144.118 57.3011 144.323 57.4311 144.563 57.5311C144.803 57.6311 145.068 57.6811 145.358 57.6811C146.478 57.6811 147.038 56.8861 147.038 55.2961V54.9961C147.038 54.2161 146.908 53.6311 146.648 53.2411C146.388 52.8411 145.943 52.6411 145.313 52.6411ZM154.107 48.3361C154.717 48.3361 155.242 48.4111 155.682 48.5611C156.132 48.7111 156.497 48.9111 156.777 49.1611C157.067 49.4111 157.277 49.7061 157.407 50.0461C157.547 50.3761 157.617 50.7211 157.617 51.0811V51.2461C157.617 51.8161 157.482 52.3661 157.212 52.8961C156.952 53.4161 156.567 53.9311 156.057 54.4411L152.892 57.5761H157.437C157.667 57.5761 157.837 57.6561 157.947 57.8161C158.057 57.9661 158.112 58.1511 158.112 58.3711C158.112 58.5911 158.057 58.7811 157.947 58.9411C157.837 59.0911 157.667 59.1661 157.437 59.1661H151.722C151.242 59.1661 150.897 59.0811 150.687 58.9111C150.477 58.7411 150.372 58.4811 150.372 58.1311C150.372 57.9711 150.412 57.8211 150.492 57.6811C150.582 57.5411 150.707 57.3861 150.867 57.2161L154.347 53.7061C154.627 53.4261 154.852 53.1811 155.022 52.9711C155.192 52.7511 155.327 52.5461 155.427 52.3561C155.527 52.1661 155.592 51.9861 155.622 51.8161C155.662 51.6361 155.682 51.4511 155.682 51.2611V51.1861C155.682 50.8561 155.552 50.5861 155.292 50.3761C155.042 50.1561 154.657 50.0461 154.137 50.0461C153.687 50.0461 153.312 50.1311 153.012 50.3011C152.712 50.4711 152.432 50.7261 152.172 51.0661C152.032 51.2561 151.857 51.3661 151.647 51.3961C151.437 51.4261 151.232 51.3711 151.032 51.2311C150.832 51.0911 150.702 50.9161 150.642 50.7061C150.582 50.4961 150.627 50.2761 150.777 50.0461C151.107 49.5561 151.547 49.1511 152.097 48.8311C152.647 48.5011 153.317 48.3361 154.107 48.3361Z" fill="#FFBC39"/>
<path d="M111.292 72.4161C111.292 71.8641 111.382 71.3541 111.562 70.8861C111.754 70.4181 112.03 70.0161 112.39 69.6801C112.762 69.3441 113.212 69.0861 113.74 68.9061C114.28 68.7141 114.904 68.6181 115.612 68.6181C116.308 68.6181 116.926 68.7141 117.466 68.9061C118.006 69.0861 118.456 69.3441 118.816 69.6801C119.188 70.0161 119.464 70.4181 119.644 70.8861C119.836 71.3541 119.932 71.8641 119.932 72.4161C119.932 72.9681 119.836 73.4781 119.644 73.9461C119.464 74.4141 119.188 74.8161 118.816 75.1521C118.456 75.4881 118.006 75.7521 117.466 75.9441C116.926 76.1241 116.308 76.2141 115.612 76.2141C114.904 76.2141 114.28 76.1241 113.74 75.9441C113.212 75.7521 112.762 75.4881 112.39 75.1521C112.03 74.8161 111.754 74.4141 111.562 73.9461C111.382 73.4781 111.292 72.9681 111.292 72.4161ZM117.736 72.4161C117.736 72.1521 117.694 71.9061 117.61 71.6781C117.538 71.4381 117.412 71.2281 117.232 71.0481C117.064 70.8681 116.842 70.7301 116.566 70.6341C116.302 70.5261 115.984 70.4721 115.612 70.4721C115.228 70.4721 114.904 70.5261 114.64 70.6341C114.376 70.7301 114.154 70.8681 113.974 71.0481C113.806 71.2281 113.68 71.4381 113.596 71.6781C113.524 71.9061 113.488 72.1521 113.488 72.4161C113.488 72.6801 113.524 72.9321 113.596 73.1721C113.68 73.4001 113.806 73.6041 113.974 73.7841C114.154 73.9641 114.376 74.1081 114.64 74.2161C114.904 74.3121 115.228 74.3601 115.612 74.3601C115.984 74.3601 116.302 74.3121 116.566 74.2161C116.842 74.1081 117.064 73.9641 117.232 73.7841C117.412 73.6041 117.538 73.4001 117.61 73.1721C117.694 72.9321 117.736 72.6801 117.736 72.4161ZM124.54 75.7461C124.54 76.0821 124.42 76.3281 124.18 76.4841C123.952 76.6401 123.688 76.7181 123.388 76.7181C123.088 76.7181 122.818 76.6401 122.578 76.4841C122.35 76.3281 122.236 76.0821 122.236 75.7461V69.1041C122.236 68.7681 122.35 68.5221 122.578 68.3661C122.818 68.2101 123.088 68.1321 123.388 68.1321C123.688 68.1321 123.952 68.2101 124.18 68.3661C124.42 68.5221 124.54 68.7681 124.54 69.1041V75.7461ZM117.124 77.4921C117.424 77.4921 117.67 77.5161 117.862 77.5641C118.066 77.6001 118.228 77.6781 118.348 77.7981C118.468 77.9061 118.546 78.0561 118.582 78.2481C118.63 78.4401 118.654 78.6861 118.654 78.9861V80.5341C118.654 80.8341 118.63 81.0801 118.582 81.2721C118.546 81.4641 118.468 81.6201 118.348 81.7401C118.228 81.8481 118.066 81.9261 117.862 81.9741C117.67 82.0101 117.424 82.0281 117.124 82.0281H115.306C115.03 82.0281 114.892 82.1661 114.892 82.4421V82.6761C114.892 82.9521 115.03 83.0901 115.306 83.0901C115.87 83.0901 116.464 83.0721 117.088 83.0361C117.724 83.0121 118.366 82.9701 119.014 82.9101C119.278 82.8861 119.47 82.9521 119.59 83.1081C119.722 83.2761 119.8 83.4801 119.824 83.7201C119.848 83.9601 119.806 84.1701 119.698 84.3501C119.59 84.5301 119.41 84.6381 119.158 84.6741C118.834 84.7221 118.27 84.7701 117.466 84.8181C116.662 84.8661 115.618 84.8901 114.334 84.8901C113.746 84.8901 113.344 84.7821 113.128 84.5661C112.912 84.3621 112.804 83.9721 112.804 83.3961V81.8481C112.804 81.5481 112.822 81.3021 112.858 81.1101C112.906 80.9181 112.99 80.7681 113.11 80.6601C113.23 80.5401 113.386 80.4621 113.578 80.4261C113.77 80.3781 114.022 80.3541 114.334 80.3541H116.152C116.428 80.3541 116.566 80.2101 116.566 79.9221V79.7061C116.566 79.4301 116.428 79.2921 116.152 79.2921H113.524C113.26 79.2921 113.068 79.2021 112.948 79.0221C112.828 78.8421 112.768 78.6321 112.768 78.3921C112.768 78.1521 112.828 77.9421 112.948 77.7621C113.068 77.5821 113.26 77.4921 113.524 77.4921H117.124ZM120.112 79.4541C119.836 79.4541 119.632 79.3581 119.5 79.1661C119.368 78.9741 119.302 78.7461 119.302 78.4821C119.302 78.2061 119.368 77.9721 119.5 77.7801C119.632 77.5881 119.836 77.4921 120.112 77.4921H123.01C123.586 77.4921 123.982 77.6001 124.198 77.8161C124.426 78.0321 124.54 78.4221 124.54 78.9861V83.9901C124.54 84.3261 124.42 84.5721 124.18 84.7281C123.952 84.8841 123.694 84.9621 123.406 84.9621C123.118 84.9621 122.854 84.8841 122.614 84.7281C122.386 84.5721 122.272 84.3261 122.272 83.9901V79.8681C122.272 79.5921 122.134 79.4541 121.858 79.4541H120.112ZM139.861 72.9561C140.137 72.9561 140.341 73.0521 140.473 73.2441C140.605 73.4361 140.671 73.6641 140.671 73.9281C140.671 74.1921 140.605 74.4201 140.473 74.6121C140.341 74.8041 140.137 74.9001 139.861 74.9001H130.645C130.069 74.9001 129.667 74.7921 129.439 74.5761C129.223 74.3601 129.115 73.9701 129.115 73.4061V69.5181C129.115 69.1821 129.229 68.9361 129.457 68.7801C129.697 68.6241 129.973 68.5461 130.285 68.5461C130.585 68.5461 130.849 68.6241 131.077 68.7801C131.317 68.9361 131.437 69.1821 131.437 69.5181V72.5421C131.437 72.8181 131.575 72.9561 131.851 72.9561H139.861ZM127.945 78.3921C127.669 78.3921 127.465 78.2961 127.333 78.1041C127.201 77.9121 127.135 77.6841 127.135 77.4201C127.135 77.1561 127.201 76.9281 127.333 76.7361C127.465 76.5441 127.669 76.4481 127.945 76.4481H141.553C141.829 76.4481 142.033 76.5441 142.165 76.7361C142.297 76.9281 142.363 77.1561 142.363 77.4201C142.363 77.6841 142.297 77.9121 142.165 78.1041C142.033 78.2961 141.829 78.3921 141.553 78.3921H127.945ZM139.897 82.8201C140.173 82.8201 140.377 82.9161 140.509 83.1081C140.641 83.3001 140.707 83.5281 140.707 83.7921C140.707 84.0561 140.641 84.2841 140.509 84.4761C140.377 84.6681 140.173 84.7641 139.897 84.7641H130.609C130.033 84.7641 129.631 84.6561 129.403 84.4401C129.187 84.2241 129.079 83.8341 129.079 83.2701V80.4801C129.079 80.1441 129.193 79.8981 129.421 79.7421C129.661 79.5861 129.937 79.5081 130.249 79.5081C130.549 79.5081 130.813 79.5861 131.041 79.7421C131.281 79.8981 131.401 80.1441 131.401 80.4801V82.4061C131.401 82.6821 131.539 82.8201 131.815 82.8201H139.897ZM150.627 70.5981C150.351 70.5981 150.147 70.5081 150.015 70.3281C149.895 70.1361 149.835 69.9081 149.835 69.6441C149.835 69.3801 149.895 69.1581 150.015 68.9781C150.147 68.7861 150.351 68.6901 150.627 68.6901H160.635C160.911 68.6901 161.109 68.7861 161.229 68.9781C161.361 69.1581 161.427 69.3801 161.427 69.6441C161.427 69.9081 161.361 70.1361 161.229 70.3281C161.109 70.5081 160.911 70.5981 160.635 70.5981H156.801V70.7241C156.801 71.0121 156.909 71.2641 157.125 71.4801C157.341 71.6841 157.719 71.8881 158.259 72.0921C159.399 72.5241 160.425 72.8781 161.337 73.1541C161.589 73.2381 161.757 73.4061 161.841 73.6581C161.925 73.8981 161.919 74.1381 161.823 74.3781C161.727 74.6301 161.565 74.8161 161.337 74.9361C161.121 75.0441 160.869 75.0561 160.581 74.9721C160.185 74.8521 159.741 74.7081 159.249 74.5401C158.769 74.3721 158.295 74.2041 157.827 74.0361C157.419 73.8921 157.083 73.7541 156.819 73.6221C156.555 73.4901 156.339 73.3701 156.171 73.2621C156.015 73.1421 155.895 73.0281 155.811 72.9201C155.739 72.8121 155.685 72.7041 155.649 72.5961H155.631C155.595 72.7041 155.535 72.8181 155.451 72.9381C155.379 73.0461 155.259 73.1661 155.091 73.2981C154.935 73.4181 154.719 73.5441 154.443 73.6761C154.179 73.8081 153.843 73.9461 153.435 74.0901C152.967 74.2581 152.487 74.4261 151.995 74.5941C151.515 74.7621 151.077 74.9061 150.681 75.0261C150.393 75.1101 150.135 75.0981 149.907 74.9901C149.691 74.8701 149.535 74.6781 149.439 74.4141C149.343 74.1741 149.331 73.9281 149.403 73.6761C149.487 73.4121 149.661 73.2381 149.925 73.1541C150.837 72.8781 151.863 72.5241 153.003 72.0921C153.543 71.8881 153.921 71.6841 154.137 71.4801C154.353 71.2641 154.461 71.0121 154.461 70.7241V70.5981H150.627ZM162.453 75.7461C162.729 75.7461 162.927 75.8421 163.047 76.0341C163.179 76.2141 163.245 76.4361 163.245 76.7001C163.245 76.9641 163.179 77.1921 163.047 77.3841C162.927 77.5641 162.729 77.6541 162.453 77.6541H156.765V79.9761H154.497V77.6541H148.809C148.533 77.6541 148.329 77.5641 148.197 77.3841C148.077 77.1921 148.017 76.9641 148.017 76.7001C148.017 76.4361 148.077 76.2141 148.197 76.0341C148.329 75.8421 148.533 75.7461 148.809 75.7461H162.453ZM149.961 82.0281C149.961 81.4761 150.087 81.0021 150.339 80.6061C150.603 80.1981 150.981 79.8681 151.473 79.6161C151.965 79.3521 152.559 79.1601 153.255 79.0401C153.951 78.9081 154.743 78.8421 155.631 78.8421C156.507 78.8421 157.293 78.9081 157.989 79.0401C158.697 79.1601 159.297 79.3521 159.789 79.6161C160.281 79.8681 160.653 80.1981 160.905 80.6061C161.169 81.0021 161.301 81.4761 161.301 82.0281C161.301 82.5801 161.169 83.0541 160.905 83.4501C160.653 83.8581 160.281 84.1881 159.789 84.4401C159.297 84.7041 158.697 84.8961 157.989 85.0161C157.293 85.1481 156.507 85.2141 155.631 85.2141C154.743 85.2141 153.951 85.1481 153.255 85.0161C152.559 84.8961 151.965 84.7041 151.473 84.4401C150.981 84.1881 150.603 83.8581 150.339 83.4501C150.087 83.0541 149.961 82.5801 149.961 82.0281ZM159.015 82.0281C159.015 81.5961 158.751 81.2601 158.223 81.0201C157.707 80.7801 156.843 80.6601 155.631 80.6601C154.419 80.6601 153.549 80.7801 153.021 81.0201C152.505 81.2601 152.247 81.5961 152.247 82.0281C152.247 82.4601 152.505 82.7961 153.021 83.0361C153.549 83.2761 154.419 83.3961 155.631 83.3961C156.843 83.3961 157.707 83.2761 158.223 83.0361C158.751 82.7961 159.015 82.4601 159.015 82.0281Z" fill="black"/>
<path d="M211.906 48.3361C212.986 48.3361 213.891 48.5211 214.621 48.8911C214.841 49.0011 214.981 49.1661 215.041 49.3861C215.101 49.6061 215.071 49.8261 214.951 50.0461C214.831 50.2761 214.676 50.4211 214.486 50.4811C214.296 50.5311 214.096 50.5111 213.886 50.4211C213.566 50.2811 213.261 50.1861 212.971 50.1361C212.681 50.0761 212.336 50.0461 211.936 50.0461C211.606 50.0461 211.316 50.0861 211.066 50.1661C210.826 50.2361 210.621 50.3361 210.451 50.4661C210.281 50.5861 210.151 50.7261 210.061 50.8861C209.981 51.0361 209.941 51.1911 209.941 51.3511V51.4411C209.941 51.6311 209.971 51.7961 210.031 51.9361C210.101 52.0761 210.216 52.2061 210.376 52.3261C210.546 52.4361 210.776 52.5411 211.066 52.6411C211.356 52.7311 211.731 52.8211 212.191 52.9111C213.441 53.1711 214.336 53.5561 214.876 54.0661C215.416 54.5761 215.686 55.2311 215.686 56.0311V56.1661C215.686 57.1961 215.351 57.9811 214.681 58.5211C214.011 59.0611 213.021 59.3311 211.711 59.3311C211.091 59.3311 210.486 59.2561 209.896 59.1061C209.316 58.9461 208.826 58.7411 208.426 58.4911C208.186 58.3411 208.051 58.1511 208.021 57.9211C207.991 57.6811 208.046 57.4561 208.186 57.2461C208.326 57.0261 208.496 56.8911 208.696 56.8411C208.896 56.7911 209.111 56.8311 209.341 56.9611C209.691 57.1611 210.076 57.3211 210.496 57.4411C210.916 57.5511 211.351 57.6061 211.801 57.6061C212.491 57.6061 212.991 57.4861 213.301 57.2461C213.611 56.9961 213.766 56.6861 213.766 56.3161V56.2111C213.766 55.7911 213.601 55.4661 213.271 55.2361C212.951 54.9961 212.431 54.8061 211.711 54.6661C211.081 54.5461 210.536 54.4061 210.076 54.2461C209.616 54.0861 209.231 53.8861 208.921 53.6461C208.621 53.3961 208.396 53.1011 208.246 52.7611C208.106 52.4111 208.036 51.9861 208.036 51.4861V51.3811C208.036 50.9611 208.116 50.5661 208.276 50.1961C208.446 49.8261 208.696 49.5061 209.026 49.2361C209.356 48.9561 209.761 48.7361 210.241 48.5761C210.721 48.4161 211.276 48.3361 211.906 48.3361ZM219.076 48.9961C219.326 48.9961 219.546 49.0611 219.736 49.1911C219.926 49.3211 220.021 49.5261 220.021 49.8061V51.2011H221.596C221.826 51.2011 221.991 51.2811 222.091 51.4411C222.201 51.5911 222.256 51.7711 222.256 51.9811C222.256 52.1911 222.201 52.3761 222.091 52.5361C221.991 52.6861 221.826 52.7611 221.596 52.7611H220.021V56.7211C220.021 57.3611 220.266 57.6811 220.756 57.6811C220.986 57.6811 221.216 57.6411 221.446 57.5611C221.606 57.5111 221.766 57.5211 221.926 57.5911C222.086 57.6611 222.206 57.8161 222.286 58.0561C222.356 58.2661 222.356 58.4611 222.286 58.6411C222.226 58.8211 222.101 58.9511 221.911 59.0311C221.731 59.1111 221.526 59.1761 221.296 59.2261C221.066 59.2661 220.831 59.2861 220.591 59.2861C219.701 59.2861 219.066 59.0661 218.686 58.6261C218.316 58.1761 218.131 57.5111 218.131 56.6311V52.7611H217.381C217.151 52.7611 216.981 52.6861 216.871 52.5361C216.771 52.3761 216.721 52.1911 216.721 51.9811C216.721 51.7711 216.771 51.5911 216.871 51.4411C216.981 51.2811 217.151 51.2011 217.381 51.2011H218.131V49.8061C218.131 49.5261 218.226 49.3211 218.416 49.1911C218.606 49.0611 218.826 48.9961 219.076 48.9961ZM227.102 52.5811C226.472 52.5811 225.997 52.7461 225.677 53.0761C225.367 53.4061 225.212 53.8261 225.212 54.3361V54.4411H228.932V54.2911C228.932 53.8011 228.792 53.3961 228.512 53.0761C228.232 52.7461 227.762 52.5811 227.102 52.5811ZM227.132 51.0211C227.672 51.0211 228.162 51.1011 228.602 51.2611C229.042 51.4211 229.422 51.6511 229.742 51.9511C230.062 52.2511 230.307 52.6211 230.477 53.0611C230.657 53.5011 230.747 54.0061 230.747 54.5761V54.6061C230.747 55.0761 230.652 55.4011 230.462 55.5811C230.282 55.7611 229.952 55.8511 229.472 55.8511H225.212V55.8811C225.212 56.4211 225.377 56.8611 225.707 57.2011C226.047 57.5411 226.552 57.7111 227.222 57.7111C227.642 57.7111 228.007 57.6811 228.317 57.6211C228.637 57.5511 228.962 57.4411 229.292 57.2911C229.492 57.2011 229.687 57.1911 229.877 57.2611C230.067 57.3211 230.207 57.4561 230.297 57.6661C230.387 57.8761 230.407 58.0811 230.357 58.2811C230.307 58.4711 230.182 58.6161 229.982 58.7161C229.602 58.9061 229.187 59.0511 228.737 59.1511C228.287 59.2411 227.757 59.2861 227.147 59.2861C225.947 59.2861 225.017 58.9611 224.357 58.3111C223.697 57.6511 223.367 56.6661 223.367 55.3561V54.9661C223.367 53.6661 223.702 52.6861 224.372 52.0261C225.042 51.3561 225.962 51.0211 227.132 51.0211ZM236.688 51.0211C237.778 51.0211 238.588 51.3561 239.118 52.0261C239.648 52.6861 239.913 53.6611 239.913 54.9511V55.3411C239.913 55.9911 239.833 56.5661 239.673 57.0661C239.513 57.5561 239.288 57.9661 238.998 58.2961C238.708 58.6261 238.358 58.8761 237.948 59.0461C237.548 59.2061 237.098 59.2861 236.598 59.2861C236.088 59.2861 235.653 59.2011 235.293 59.0311C234.933 58.8511 234.643 58.6161 234.423 58.3261V61.3711C234.423 61.6411 234.328 61.8411 234.138 61.9711C233.948 62.1011 233.728 62.1661 233.478 62.1661C233.238 62.1661 233.018 62.1011 232.818 61.9711C232.628 61.8411 232.533 61.6411 232.533 61.3711V51.8761C232.533 51.6161 232.623 51.4261 232.803 51.3061C232.993 51.1761 233.203 51.1111 233.433 51.1111C233.673 51.1111 233.883 51.1761 234.063 51.3061C234.253 51.4261 234.348 51.6161 234.348 51.8761V52.1011C234.488 51.8911 234.653 51.7161 234.843 51.5761C235.033 51.4361 235.233 51.3261 235.443 51.2461C235.653 51.1661 235.863 51.1111 236.073 51.0811C236.283 51.0411 236.488 51.0211 236.688 51.0211ZM236.313 52.6411C235.683 52.6411 235.203 52.8261 234.873 53.1961C234.553 53.5561 234.393 54.0211 234.393 54.5911V55.9861C234.393 56.1961 234.443 56.4011 234.543 56.6011C234.643 56.8011 234.778 56.9811 234.948 57.1411C235.118 57.3011 235.323 57.4311 235.563 57.5311C235.803 57.6311 236.068 57.6811 236.358 57.6811C237.478 57.6811 238.038 56.8861 238.038 55.2961V54.9961C238.038 54.2161 237.908 53.6311 237.648 53.2411C237.388 52.8411 236.943 52.6411 236.313 52.6411ZM244.897 48.3361C245.507 48.3361 246.037 48.4111 246.487 48.5611C246.937 48.7111 247.307 48.9111 247.597 49.1611C247.897 49.4111 248.117 49.7011 248.257 50.0311C248.397 50.3611 248.467 50.7061 248.467 51.0661V51.1411C248.467 51.4111 248.427 51.6811 248.347 51.9511C248.267 52.2111 248.147 52.4561 247.987 52.6861C247.837 52.9061 247.652 53.1011 247.432 53.2711C247.212 53.4311 246.962 53.5561 246.682 53.6461C246.962 53.6861 247.237 53.7611 247.507 53.8711C247.777 53.9811 248.017 54.1361 248.227 54.3361C248.437 54.5261 248.602 54.7661 248.722 55.0561C248.852 55.3361 248.917 55.6711 248.917 56.0611V56.2111C248.917 56.6311 248.832 57.0311 248.662 57.4111C248.492 57.7811 248.242 58.1111 247.912 58.4011C247.582 58.6811 247.172 58.9061 246.682 59.0761C246.192 59.2461 245.627 59.3311 244.987 59.3311C244.397 59.3311 243.857 59.2711 243.367 59.1511C242.877 59.0211 242.412 58.8161 241.972 58.5361C241.742 58.3861 241.607 58.1961 241.567 57.9661C241.537 57.7261 241.587 57.5011 241.717 57.2911C241.857 57.0611 242.027 56.9211 242.227 56.8711C242.427 56.8211 242.642 56.8661 242.872 57.0061C243.222 57.2361 243.547 57.3961 243.847 57.4861C244.147 57.5761 244.482 57.6211 244.852 57.6211C245.252 57.6211 245.587 57.5861 245.857 57.5161C246.127 57.4361 246.342 57.3311 246.502 57.2011C246.672 57.0611 246.792 56.9011 246.862 56.7211C246.942 56.5311 246.982 56.3311 246.982 56.1211V56.0011C246.982 55.4911 246.812 55.1161 246.472 54.8761C246.132 54.6261 245.577 54.5011 244.807 54.5011H244.012C243.772 54.5011 243.597 54.4211 243.487 54.2611C243.377 54.1011 243.322 53.9061 243.322 53.6761C243.322 53.4461 243.377 53.2511 243.487 53.0911C243.597 52.9311 243.772 52.8511 244.012 52.8511H244.642C245.312 52.8511 245.802 52.7261 246.112 52.4761C246.432 52.2161 246.592 51.8261 246.592 51.3061V51.2611C246.592 50.8811 246.457 50.5811 246.187 50.3611C245.917 50.1311 245.482 50.0161 244.882 50.0161C244.522 50.0161 244.212 50.0761 243.952 50.1961C243.702 50.3161 243.447 50.4911 243.187 50.7211C242.997 50.8911 242.792 50.9661 242.572 50.9461C242.352 50.9161 242.172 50.8111 242.032 50.6311C241.882 50.4511 241.812 50.2561 241.822 50.0461C241.842 49.8361 241.922 49.6461 242.062 49.4761C242.382 49.1261 242.777 48.8511 243.247 48.6511C243.717 48.4411 244.267 48.3361 244.897 48.3361Z" fill="#EB3636"/>
<path d="M217.895 75.3321C216.467 75.3321 215.393 75.0261 214.673 74.4141C213.953 73.7901 213.593 72.9801 213.593 71.9841C213.593 70.9881 213.953 70.1841 214.673 69.5721C215.393 68.9481 216.467 68.6361 217.895 68.6361C219.323 68.6361 220.397 68.9481 221.117 69.5721C221.837 70.1841 222.197 70.9881 222.197 71.9841C222.197 72.9801 221.837 73.7901 221.117 74.4141C220.397 75.0261 219.323 75.3321 217.895 75.3321ZM217.895 73.4601C218.639 73.4601 219.179 73.3281 219.515 73.0641C219.863 72.8001 220.037 72.4401 220.037 71.9841C220.037 71.5281 219.863 71.1681 219.515 70.9041C219.179 70.6401 218.639 70.5081 217.895 70.5081C217.151 70.5081 216.605 70.6401 216.257 70.9041C215.921 71.1681 215.753 71.5281 215.753 71.9841C215.753 72.4401 215.921 72.8001 216.257 73.0641C216.605 73.3281 217.151 73.4601 217.895 73.4601ZM226.013 73.1001H227.471C227.759 73.1001 227.969 73.1961 228.101 73.3881C228.233 73.5801 228.299 73.8141 228.299 74.0901C228.299 74.3661 228.233 74.6061 228.101 74.8101C227.969 75.0021 227.759 75.0981 227.471 75.0981H226.013V79.8141C226.013 80.1381 225.899 80.3781 225.671 80.5341C225.443 80.6901 225.179 80.7681 224.879 80.7681C224.579 80.7681 224.315 80.6901 224.087 80.5341C223.859 80.3781 223.745 80.1381 223.745 79.8141V69.0861C223.745 68.7621 223.859 68.5221 224.087 68.3661C224.315 68.2101 224.579 68.1321 224.879 68.1321C225.179 68.1321 225.443 68.2101 225.671 68.3661C225.899 68.5221 226.013 68.7621 226.013 69.0861V73.1001ZM222.341 78.4461C221.765 78.4941 221.129 78.5361 220.433 78.5721C219.737 78.6081 219.005 78.6441 218.237 78.6801C217.481 78.7041 216.695 78.7221 215.879 78.7341C215.075 78.7461 214.265 78.7521 213.449 78.7521C213.173 78.7521 212.969 78.6561 212.837 78.4641C212.705 78.2721 212.639 78.0441 212.639 77.7801C212.639 77.5281 212.705 77.3061 212.837 77.1141C212.969 76.9221 213.173 76.8261 213.449 76.8261C214.001 76.8261 214.553 76.8261 215.105 76.8261C215.657 76.8261 216.215 76.8201 216.779 76.8081V74.0001H219.047V76.7541C219.575 76.7301 220.097 76.7061 220.613 76.6821C221.141 76.6461 221.663 76.6041 222.179 76.5561C222.455 76.5321 222.659 76.6041 222.791 76.7721C222.935 76.9401 223.019 77.1561 223.043 77.4201C223.067 77.6601 223.025 77.8881 222.917 78.1041C222.809 78.3081 222.617 78.4221 222.341 78.4461ZM225.599 82.7841C225.875 82.7841 226.079 82.8801 226.211 83.0721C226.343 83.2641 226.409 83.4921 226.409 83.7561C226.409 84.0201 226.343 84.2481 226.211 84.4401C226.079 84.6321 225.875 84.7281 225.599 84.7281H216.509C215.933 84.7281 215.531 84.6201 215.303 84.4041C215.087 84.1881 214.979 83.7981 214.979 83.2341V80.4801C214.979 80.1441 215.093 79.8981 215.321 79.7421C215.561 79.5861 215.837 79.5081 216.149 79.5081C216.449 79.5081 216.713 79.5861 216.941 79.7421C217.181 79.8981 217.301 80.1441 217.301 80.4801V82.3701C217.301 82.6461 217.439 82.7841 217.715 82.7841H225.599ZM232.586 74.7561C232.01 74.7561 231.608 74.6481 231.38 74.4321C231.164 74.2161 231.056 73.8261 231.056 73.2621V70.1841C231.056 69.6201 231.164 69.2301 231.38 69.0141C231.608 68.7981 232.01 68.6901 232.586 68.6901H241.46C241.736 68.6901 241.934 68.7861 242.054 68.9781C242.186 69.1581 242.252 69.3801 242.252 69.6441C242.252 69.9081 242.186 70.1361 242.054 70.3281C241.934 70.5081 241.736 70.5981 241.46 70.5981H233.792C233.516 70.5981 233.378 70.7361 233.378 71.0121V72.4341C233.378 72.7101 233.516 72.8481 233.792 72.8481H241.64C241.916 72.8481 242.114 72.9441 242.234 73.1361C242.366 73.3161 242.432 73.5381 242.432 73.8021C242.432 74.0661 242.366 74.2941 242.234 74.4861C242.114 74.6661 241.916 74.7561 241.64 74.7561H232.586ZM229.868 78.1941C229.592 78.1941 229.388 78.1041 229.256 77.9241C229.136 77.7321 229.076 77.5041 229.076 77.2401C229.076 76.9761 229.136 76.7541 229.256 76.5741C229.388 76.3821 229.592 76.2861 229.868 76.2861H235.556V73.8741H237.824V76.2861H243.512C243.788 76.2861 243.986 76.3821 244.106 76.5741C244.238 76.7541 244.304 76.9761 244.304 77.2401C244.304 77.5041 244.238 77.7321 244.106 77.9241C243.986 78.1041 243.788 78.1941 243.512 78.1941H229.868ZM240.056 81.6501C240.056 81.3741 239.918 81.2361 239.642 81.2361H231.596C231.32 81.2361 231.116 81.1461 230.984 80.9661C230.864 80.7741 230.804 80.5461 230.804 80.2821C230.804 80.0181 230.864 79.7961 230.984 79.6161C231.116 79.4241 231.32 79.3281 231.596 79.3281H240.83C241.406 79.3281 241.802 79.4361 242.018 79.6521C242.246 79.8681 242.36 80.2581 242.36 80.8221V84.1521C242.36 84.4881 242.24 84.7341 242 84.8901C241.772 85.0461 241.508 85.1241 241.208 85.1241C240.908 85.1241 240.638 85.0461 240.398 84.8901C240.17 84.7341 240.056 84.4881 240.056 84.1521V81.6501Z" fill="black"/>
</svg>
