<svg width="291" height="83" viewBox="0 0 291 83" fill="none" xmlns="http://www.w3.org/2000/svg">
<rect x="11" y="9" width="93" height="28" rx="14" fill="#FFFBDC"/>
<path d="M22.13 16.715C22.27 16.725 22.375 16.77 22.445 16.85C22.515 16.92 22.54 17.025 22.52 17.165L22.16 19.73H24.38L24.77 17.09C24.8 16.82 24.97 16.695 25.28 16.715C25.41 16.725 25.51 16.77 25.58 16.85C25.65 16.92 25.675 17.025 25.655 17.165L25.295 19.73H26.54C26.68 19.73 26.78 19.775 26.84 19.865C26.9 19.955 26.93 20.065 26.93 20.195C26.93 20.315 26.9 20.42 26.84 20.51C26.78 20.6 26.68 20.645 26.54 20.645H25.16L24.77 23.495H26.045C26.185 23.495 26.285 23.54 26.345 23.63C26.405 23.72 26.435 23.83 26.435 23.96C26.435 24.08 26.405 24.185 26.345 24.275C26.285 24.365 26.185 24.41 26.045 24.41H24.65L24.275 27.095C24.245 27.365 24.075 27.485 23.765 27.455C23.625 27.445 23.52 27.405 23.45 27.335C23.38 27.255 23.355 27.145 23.375 27.005L23.735 24.41H21.5L21.14 27.095C21.09 27.365 20.915 27.485 20.615 27.455C20.485 27.445 20.385 27.405 20.315 27.335C20.245 27.255 20.22 27.145 20.24 27.005L20.6 24.41H19.355C19.215 24.41 19.115 24.365 19.055 24.275C18.995 24.185 18.965 24.08 18.965 23.96C18.965 23.83 18.995 23.72 19.055 23.63C19.115 23.54 19.215 23.495 19.355 23.495H20.72L21.125 20.645H19.835C19.705 20.645 19.61 20.6 19.55 20.51C19.49 20.42 19.46 20.315 19.46 20.195C19.46 20.065 19.49 19.955 19.55 19.865C19.61 19.775 19.705 19.73 19.835 19.73H21.245L21.62 17.09C21.64 16.95 21.695 16.85 21.785 16.79C21.875 16.73 21.99 16.705 22.13 16.715ZM23.87 23.495L24.275 20.645H22.025L21.635 23.495H23.87ZM33.5705 16.85C33.9605 16.85 34.2305 16.925 34.3805 17.075C34.5305 17.215 34.6055 17.475 34.6055 17.855V20.615C34.6055 20.995 34.5305 21.26 34.3805 21.41C34.2305 21.55 33.9605 21.62 33.5705 21.62H30.0005C29.8105 21.62 29.7155 21.71 29.7155 21.89V24.35C29.7155 24.53 29.8105 24.62 30.0005 24.62C31.1105 24.62 32.1305 24.595 33.0605 24.545C33.9905 24.485 34.9005 24.39 35.7905 24.26C35.9105 24.24 36.0105 24.27 36.0905 24.35C36.1705 24.43 36.2205 24.535 36.2405 24.665C36.2605 24.805 36.2405 24.93 36.1805 25.04C36.1305 25.14 36.0455 25.2 35.9255 25.22C35.5355 25.27 35.1205 25.32 34.6805 25.37C34.2505 25.41 33.7805 25.445 33.2705 25.475C32.7705 25.505 32.2205 25.53 31.6205 25.55C31.0305 25.56 30.3805 25.565 29.6705 25.565C29.2805 25.565 29.0105 25.495 28.8605 25.355C28.7105 25.205 28.6355 24.94 28.6355 24.56V21.71C28.6355 21.33 28.7105 21.07 28.8605 20.93C29.0105 20.78 29.2805 20.705 29.6705 20.705H33.2405C33.4305 20.705 33.5255 20.61 33.5255 20.42V18.065C33.5255 17.885 33.4305 17.795 33.2405 17.795H29.0105C28.8805 17.795 28.7855 17.75 28.7255 17.66C28.6655 17.57 28.6355 17.455 28.6355 17.315C28.6355 17.185 28.6655 17.075 28.7255 16.985C28.7855 16.895 28.8805 16.85 29.0105 16.85H33.5705ZM37.9355 15.89C38.0755 15.89 38.2005 15.925 38.3105 15.995C38.4305 16.065 38.4905 16.18 38.4905 16.34V20.525H40.3955C40.5355 20.525 40.6355 20.575 40.6955 20.675C40.7555 20.765 40.7855 20.875 40.7855 21.005C40.7855 21.145 40.7555 21.265 40.6955 21.365C40.6355 21.455 40.5355 21.5 40.3955 21.5H38.4905V28.28C38.4905 28.44 38.4305 28.555 38.3105 28.625C38.2005 28.695 38.0755 28.73 37.9355 28.73C37.7955 28.73 37.6705 28.695 37.5605 28.625C37.4505 28.555 37.3955 28.44 37.3955 28.28V16.34C37.3955 16.18 37.4505 16.065 37.5605 15.995C37.6705 15.925 37.7955 15.89 37.9355 15.89ZM45.6779 16.685C46.8079 16.685 47.6579 17.06 48.2279 17.81C48.7979 18.56 49.0829 19.65 49.0829 21.08C49.0829 22.51 48.7979 23.6 48.2279 24.35C47.6579 25.1 46.8079 25.475 45.6779 25.475C44.5479 25.475 43.6929 25.1 43.1129 24.35C42.5429 23.6 42.2579 22.51 42.2579 21.08C42.2579 19.65 42.5429 18.56 43.1129 17.81C43.6929 17.06 44.5479 16.685 45.6779 16.685ZM45.6779 17.66C44.8579 17.66 44.2629 17.96 43.8929 18.56C43.5229 19.15 43.3379 19.99 43.3379 21.08C43.3379 22.17 43.5229 23.015 43.8929 23.615C44.2629 24.205 44.8579 24.5 45.6779 24.5C46.4979 24.5 47.0929 24.205 47.4629 23.615C47.8329 23.015 48.0179 22.17 48.0179 21.08C48.0179 19.99 47.8329 19.15 47.4629 18.56C47.0929 17.96 46.4979 17.66 45.6779 17.66ZM52.2329 15.89C52.3729 15.89 52.4979 15.925 52.6079 15.995C52.7279 16.065 52.7879 16.18 52.7879 16.34V28.28C52.7879 28.44 52.7279 28.555 52.6079 28.625C52.4979 28.695 52.3729 28.73 52.2329 28.73C52.0929 28.73 51.9679 28.695 51.8579 28.625C51.7479 28.555 51.6929 28.44 51.6929 28.28V16.34C51.6929 16.18 51.7479 16.065 51.8579 15.995C51.9679 15.925 52.0929 15.89 52.2329 15.89ZM57.6352 16.61C57.7752 16.61 57.9002 16.645 58.0102 16.715C58.1202 16.785 58.1752 16.9 58.1752 17.06V19.175H64.9552V17.06C64.9552 16.9 65.0102 16.785 65.1202 16.715C65.2302 16.645 65.3552 16.61 65.4952 16.61C65.6352 16.61 65.7602 16.645 65.8702 16.715C65.9802 16.785 66.0352 16.9 66.0352 17.06V22.49C66.0352 22.87 65.9602 23.135 65.8102 23.285C65.6602 23.425 65.3902 23.495 65.0002 23.495H58.1302C57.7402 23.495 57.4702 23.425 57.3202 23.285C57.1702 23.135 57.0952 22.87 57.0952 22.49V17.06C57.0952 16.9 57.1502 16.785 57.2602 16.715C57.3702 16.645 57.4952 16.61 57.6352 16.61ZM58.1752 22.265C58.1752 22.455 58.2702 22.55 58.4602 22.55H64.6702C64.8602 22.55 64.9552 22.455 64.9552 22.265V20.12H58.1752V22.265ZM67.4302 26.375C67.5702 26.375 67.6702 26.425 67.7302 26.525C67.7902 26.615 67.8202 26.73 67.8202 26.87C67.8202 27 67.7902 27.11 67.7302 27.2C67.6702 27.29 67.5702 27.335 67.4302 27.335H55.7002C55.5602 27.335 55.4602 27.29 55.4002 27.2C55.3402 27.11 55.3102 27 55.3102 26.87C55.3102 26.73 55.3402 26.615 55.4002 26.525C55.4602 26.425 55.5602 26.375 55.7002 26.375H67.4302ZM74.5276 16.85C74.9176 16.85 75.1876 16.925 75.3376 17.075C75.4876 17.215 75.5626 17.475 75.5626 17.855V20.615C75.5626 20.995 75.4876 21.26 75.3376 21.41C75.1876 21.55 74.9176 21.62 74.5276 21.62H71.1676C70.9776 21.62 70.8826 21.71 70.8826 21.89V24.35C70.8826 24.53 70.9776 24.62 71.1676 24.62C72.2276 24.62 73.2176 24.595 74.1376 24.545C75.0576 24.495 75.9576 24.405 76.8376 24.275C76.9576 24.255 77.0576 24.285 77.1376 24.365C77.2176 24.445 77.2676 24.55 77.2876 24.68C77.3076 24.82 77.2876 24.945 77.2276 25.055C77.1776 25.155 77.0926 25.215 76.9726 25.235C76.2026 25.345 75.3276 25.43 74.3476 25.49C73.3676 25.54 72.1976 25.565 70.8376 25.565C70.4476 25.565 70.1776 25.495 70.0276 25.355C69.8776 25.205 69.8026 24.94 69.8026 24.56V21.71C69.8026 21.33 69.8776 21.07 70.0276 20.93C70.1776 20.78 70.4476 20.705 70.8376 20.705H74.1976C74.3876 20.705 74.4826 20.61 74.4826 20.42V18.065C74.4826 17.885 74.3876 17.795 74.1976 17.795H70.1776C70.0476 17.795 69.9526 17.75 69.8926 17.66C69.8326 17.57 69.8026 17.455 69.8026 17.315C69.8026 17.185 69.8326 17.075 69.8926 16.985C69.9526 16.895 70.0476 16.85 70.1776 16.85H74.5276ZM79.6426 15.89C79.7826 15.89 79.9076 15.925 80.0176 15.995C80.1276 16.065 80.1826 16.18 80.1826 16.34V28.28C80.1826 28.44 80.1276 28.555 80.0176 28.625C79.9076 28.695 79.7826 28.73 79.6426 28.73C79.5026 28.73 79.3776 28.695 79.2676 28.625C79.1576 28.555 79.1026 28.44 79.1026 28.28V21.425H76.9426C76.8026 21.425 76.7026 21.38 76.6426 21.29C76.5826 21.19 76.5526 21.07 76.5526 20.93C76.5526 20.8 76.5826 20.69 76.6426 20.6C76.7026 20.51 76.8026 20.465 76.9426 20.465H79.1026V16.34C79.1026 16.18 79.1576 16.065 79.2676 15.995C79.3776 15.925 79.5026 15.89 79.6426 15.89ZM88.5099 16.835C88.8999 16.835 89.1699 16.91 89.3199 17.06C89.4699 17.2 89.5449 17.46 89.5449 17.84V20.615C89.5449 20.995 89.4699 21.26 89.3199 21.41C89.1699 21.55 88.8999 21.62 88.5099 21.62H84.9099C84.7199 21.62 84.6249 21.71 84.6249 21.89V24.365C84.6249 24.545 84.7199 24.635 84.9099 24.635C86.0899 24.635 87.1499 24.61 88.0899 24.56C89.0399 24.5 89.9599 24.405 90.8499 24.275C90.9699 24.255 91.0699 24.285 91.1499 24.365C91.2299 24.445 91.2799 24.55 91.2999 24.68C91.3199 24.82 91.2999 24.945 91.2399 25.055C91.1899 25.155 91.1049 25.215 90.9849 25.235C90.5949 25.285 90.1799 25.335 89.7399 25.385C89.3099 25.425 88.8349 25.46 88.3149 25.49C87.7949 25.52 87.2299 25.545 86.6199 25.565C86.0099 25.575 85.3299 25.58 84.5799 25.58C84.1899 25.58 83.9199 25.51 83.7699 25.37C83.6199 25.22 83.5449 24.955 83.5449 24.575V21.71C83.5449 21.33 83.6199 21.07 83.7699 20.93C83.9199 20.78 84.1899 20.705 84.5799 20.705H88.1799C88.3699 20.705 88.4649 20.61 88.4649 20.42V18.05C88.4649 17.87 88.3699 17.78 88.1799 17.78H83.9199C83.7899 17.78 83.6949 17.735 83.6349 17.645C83.5749 17.555 83.5449 17.44 83.5449 17.3C83.5449 17.17 83.5749 17.06 83.6349 16.97C83.6949 16.88 83.7899 16.835 83.9199 16.835H88.5099ZM93.1899 15.89C93.3299 15.89 93.4549 15.925 93.5649 15.995C93.6849 16.065 93.7449 16.18 93.7449 16.34V28.28C93.7449 28.44 93.6849 28.555 93.5649 28.625C93.4549 28.695 93.3299 28.73 93.1899 28.73C93.0499 28.73 92.9249 28.695 92.8149 28.625C92.7049 28.555 92.6499 28.44 92.6499 28.28V16.34C92.6499 16.18 92.7049 16.065 92.8149 15.995C92.9249 15.925 93.0499 15.89 93.1899 15.89Z" fill="#333333"/>
<rect x="11" y="9" width="93" height="28" rx="14" stroke="#FFE071"/>
<rect x="113" y="9" width="79" height="28" rx="14" fill="white"/>
<path d="M124.13 16.715C124.27 16.725 124.375 16.77 124.445 16.85C124.515 16.92 124.54 17.025 124.52 17.165L124.16 19.73H126.38L126.77 17.09C126.8 16.82 126.97 16.695 127.28 16.715C127.41 16.725 127.51 16.77 127.58 16.85C127.65 16.92 127.675 17.025 127.655 17.165L127.295 19.73H128.54C128.68 19.73 128.78 19.775 128.84 19.865C128.9 19.955 128.93 20.065 128.93 20.195C128.93 20.315 128.9 20.42 128.84 20.51C128.78 20.6 128.68 20.645 128.54 20.645H127.16L126.77 23.495H128.045C128.185 23.495 128.285 23.54 128.345 23.63C128.405 23.72 128.435 23.83 128.435 23.96C128.435 24.08 128.405 24.185 128.345 24.275C128.285 24.365 128.185 24.41 128.045 24.41H126.65L126.275 27.095C126.245 27.365 126.075 27.485 125.765 27.455C125.625 27.445 125.52 27.405 125.45 27.335C125.38 27.255 125.355 27.145 125.375 27.005L125.735 24.41H123.5L123.14 27.095C123.09 27.365 122.915 27.485 122.615 27.455C122.485 27.445 122.385 27.405 122.315 27.335C122.245 27.255 122.22 27.145 122.24 27.005L122.6 24.41H121.355C121.215 24.41 121.115 24.365 121.055 24.275C120.995 24.185 120.965 24.08 120.965 23.96C120.965 23.83 120.995 23.72 121.055 23.63C121.115 23.54 121.215 23.495 121.355 23.495H122.72L123.125 20.645H121.835C121.705 20.645 121.61 20.6 121.55 20.51C121.49 20.42 121.46 20.315 121.46 20.195C121.46 20.065 121.49 19.955 121.55 19.865C121.61 19.775 121.705 19.73 121.835 19.73H123.245L123.62 17.09C123.64 16.95 123.695 16.85 123.785 16.79C123.875 16.73 123.99 16.705 124.13 16.715ZM125.87 23.495L126.275 20.645H124.025L123.635 23.495H125.87ZM136.261 15.71C136.401 15.71 136.526 15.75 136.636 15.83C136.756 15.9 136.816 16.015 136.816 16.175V17.255H140.686C140.816 17.255 140.911 17.305 140.971 17.405C141.031 17.495 141.061 17.605 141.061 17.735C141.061 17.865 141.031 17.98 140.971 18.08C140.911 18.17 140.816 18.215 140.686 18.215H136.816V18.53C136.816 19.04 136.916 19.445 137.116 19.745C137.326 20.045 137.681 20.31 138.181 20.54C138.691 20.77 139.196 20.995 139.696 21.215C140.206 21.435 140.686 21.63 141.136 21.8C141.256 21.85 141.331 21.945 141.361 22.085C141.401 22.215 141.391 22.34 141.331 22.46C141.271 22.59 141.186 22.68 141.076 22.73C140.966 22.77 140.851 22.765 140.731 22.715C140.311 22.545 139.866 22.36 139.396 22.16C138.936 21.96 138.481 21.76 138.031 21.56C137.691 21.41 137.411 21.27 137.191 21.14C136.981 21.01 136.811 20.885 136.681 20.765C136.551 20.645 136.456 20.535 136.396 20.435C136.336 20.335 136.296 20.24 136.276 20.15H136.261C136.241 20.24 136.201 20.34 136.141 20.45C136.081 20.55 135.986 20.66 135.856 20.78C135.726 20.9 135.551 21.025 135.331 21.155C135.111 21.285 134.831 21.425 134.491 21.575C134.051 21.775 133.596 21.975 133.126 22.175C132.666 22.375 132.226 22.56 131.806 22.73C131.686 22.78 131.566 22.785 131.446 22.745C131.336 22.695 131.251 22.605 131.191 22.475C131.131 22.345 131.116 22.215 131.146 22.085C131.186 21.945 131.266 21.85 131.386 21.8C131.836 21.63 132.311 21.435 132.811 21.215C133.321 20.995 133.831 20.77 134.341 20.54C134.841 20.31 135.191 20.045 135.391 19.745C135.601 19.445 135.706 19.04 135.706 18.53V18.215H131.836C131.706 18.215 131.611 18.17 131.551 18.08C131.491 17.98 131.461 17.865 131.461 17.735C131.461 17.605 131.491 17.495 131.551 17.405C131.611 17.305 131.706 17.255 131.836 17.255H135.706V16.175C135.706 16.015 135.761 15.9 135.871 15.83C135.991 15.75 136.121 15.71 136.261 15.71ZM142.126 23.99C142.266 23.99 142.366 24.035 142.426 24.125C142.486 24.215 142.516 24.33 142.516 24.47C142.516 24.6 142.486 24.71 142.426 24.8C142.366 24.89 142.266 24.935 142.126 24.935H136.816V29.33C136.816 29.49 136.756 29.605 136.636 29.675C136.526 29.745 136.401 29.78 136.261 29.78C136.121 29.78 135.996 29.745 135.886 29.675C135.776 29.605 135.721 29.49 135.721 29.33V24.935H130.396C130.256 24.935 130.156 24.89 130.096 24.8C130.036 24.71 130.006 24.6 130.006 24.47C130.006 24.33 130.036 24.215 130.096 24.125C130.156 24.035 130.256 23.99 130.396 23.99H142.126ZM147.978 15.86C148.118 15.86 148.243 15.895 148.353 15.965C148.473 16.035 148.533 16.15 148.533 16.31V17.63H151.338C151.468 17.63 151.563 17.675 151.623 17.765C151.683 17.855 151.713 17.965 151.713 18.095C151.713 18.235 151.683 18.35 151.623 18.44C151.563 18.53 151.468 18.575 151.338 18.575H148.533V19.67C148.533 20.18 148.613 20.6 148.773 20.93C148.933 21.25 149.208 21.56 149.598 21.86C149.968 22.15 150.303 22.405 150.603 22.625C150.903 22.835 151.198 23.045 151.488 23.255C151.608 23.345 151.673 23.46 151.683 23.6C151.703 23.73 151.673 23.845 151.593 23.945C151.513 24.055 151.413 24.125 151.293 24.155C151.183 24.185 151.058 24.155 150.918 24.065C150.688 23.905 150.428 23.72 150.138 23.51C149.848 23.3 149.533 23.065 149.193 22.805C148.783 22.495 148.488 22.23 148.308 22.01C148.138 21.78 148.033 21.59 147.993 21.44H147.978C147.938 21.6 147.828 21.795 147.648 22.025C147.478 22.255 147.188 22.525 146.778 22.835C146.428 23.095 146.083 23.35 145.743 23.6C145.413 23.84 145.103 24.06 144.813 24.26C144.683 24.36 144.558 24.395 144.438 24.365C144.318 24.325 144.218 24.25 144.138 24.14C144.058 24.03 144.018 23.91 144.018 23.78C144.028 23.65 144.098 23.54 144.228 23.45C144.578 23.2 144.928 22.95 145.278 22.7C145.628 22.45 145.988 22.18 146.358 21.89C146.748 21.58 147.023 21.265 147.183 20.945C147.343 20.615 147.423 20.195 147.423 19.685V18.575H144.528C144.398 18.575 144.303 18.53 144.243 18.44C144.183 18.35 144.153 18.235 144.153 18.095C144.153 17.965 144.183 17.855 144.243 17.765C144.303 17.675 144.398 17.63 144.528 17.63H147.423V16.31C147.423 16.15 147.478 16.035 147.588 15.965C147.708 15.895 147.838 15.86 147.978 15.86ZM154.338 15.89C154.478 15.89 154.603 15.925 154.713 15.995C154.823 16.065 154.878 16.18 154.878 16.34V25.49C154.878 25.65 154.823 25.765 154.713 25.835C154.603 25.905 154.478 25.94 154.338 25.94C154.198 25.94 154.073 25.905 153.963 25.835C153.853 25.765 153.798 25.65 153.798 25.49V21.125H151.308C151.168 21.125 151.068 21.08 151.008 20.99C150.948 20.89 150.918 20.775 150.918 20.645C150.918 20.505 150.948 20.39 151.008 20.3C151.068 20.21 151.168 20.165 151.308 20.165H153.798V16.34C153.798 16.18 153.853 16.065 153.963 15.995C154.073 15.925 154.198 15.89 154.338 15.89ZM146.868 25.07C147.008 25.07 147.133 25.105 147.243 25.175C147.363 25.245 147.423 25.36 147.423 25.52V28.16C147.423 28.34 147.518 28.43 147.708 28.43H154.878C155.018 28.43 155.118 28.475 155.178 28.565C155.238 28.665 155.268 28.78 155.268 28.91C155.268 29.04 155.238 29.15 155.178 29.24C155.118 29.34 155.018 29.39 154.878 29.39H147.348C146.958 29.39 146.688 29.315 146.538 29.165C146.388 29.025 146.313 28.765 146.313 28.385V25.52C146.313 25.36 146.368 25.245 146.478 25.175C146.598 25.105 146.728 25.07 146.868 25.07ZM167.615 16.76C167.755 16.76 167.855 16.805 167.915 16.895C167.975 16.985 168.005 17.095 168.005 17.225C168.005 17.365 167.975 17.48 167.915 17.57C167.855 17.66 167.755 17.705 167.615 17.705H160.475C160.285 17.705 160.19 17.795 160.19 17.975V21.92C160.19 22.1 160.285 22.19 160.475 22.19H167.765C167.905 22.19 168.005 22.235 168.065 22.325C168.125 22.415 168.155 22.525 168.155 22.655C168.155 22.795 168.125 22.91 168.065 23C168.005 23.09 167.905 23.135 167.765 23.135H160.13C159.74 23.135 159.47 23.065 159.32 22.925C159.17 22.775 159.095 22.51 159.095 22.13V17.765C159.095 17.385 159.17 17.125 159.32 16.985C159.47 16.835 159.74 16.76 160.13 16.76H167.615ZM164.12 26.39H169.43C169.57 26.39 169.67 26.435 169.73 26.525C169.79 26.615 169.82 26.73 169.82 26.87C169.82 27 169.79 27.11 169.73 27.2C169.67 27.29 169.57 27.335 169.43 27.335H157.7C157.56 27.335 157.46 27.29 157.4 27.2C157.34 27.11 157.31 27 157.31 26.87C157.31 26.73 157.34 26.615 157.4 26.525C157.46 26.435 157.56 26.39 157.7 26.39H163.025V22.715H164.12V26.39ZM175.223 16.595C175.363 16.595 175.488 16.63 175.598 16.7C175.718 16.77 175.778 16.89 175.778 17.06V19.55C175.778 19.88 175.798 20.175 175.838 20.435C175.878 20.695 175.943 20.94 176.033 21.17C176.133 21.4 176.258 21.625 176.408 21.845C176.568 22.065 176.768 22.3 177.008 22.55C177.338 22.9 177.658 23.23 177.968 23.54C178.288 23.85 178.593 24.135 178.883 24.395C178.993 24.485 179.038 24.6 179.018 24.74C179.008 24.87 178.958 24.985 178.868 25.085C178.788 25.165 178.683 25.22 178.553 25.25C178.423 25.27 178.303 25.225 178.193 25.115C177.933 24.885 177.663 24.635 177.383 24.365C177.103 24.085 176.798 23.78 176.468 23.45C176.228 23.2 176.033 22.985 175.883 22.805C175.733 22.625 175.613 22.47 175.523 22.34C175.433 22.21 175.363 22.095 175.313 21.995C175.273 21.895 175.248 21.805 175.238 21.725H175.223C175.203 21.815 175.168 21.91 175.118 22.01C175.078 22.1 175.013 22.215 174.923 22.355C174.833 22.485 174.713 22.64 174.563 22.82C174.413 23 174.218 23.215 173.978 23.465C173.648 23.795 173.333 24.11 173.033 24.41C172.733 24.7 172.413 25 172.073 25.31C171.953 25.42 171.823 25.46 171.683 25.43C171.553 25.4 171.448 25.34 171.368 25.25C171.278 25.14 171.228 25.025 171.218 24.905C171.208 24.775 171.258 24.66 171.368 24.56C171.728 24.23 172.078 23.9 172.418 23.57C172.758 23.24 173.093 22.9 173.423 22.55C173.663 22.3 173.858 22.065 174.008 21.845C174.168 21.625 174.298 21.4 174.398 21.17C174.498 20.94 174.568 20.695 174.608 20.435C174.648 20.175 174.668 19.88 174.668 19.55V17.06C174.668 16.89 174.723 16.77 174.833 16.7C174.943 16.63 175.073 16.595 175.223 16.595ZM181.643 15.89C181.783 15.89 181.908 15.925 182.018 15.995C182.128 16.065 182.183 16.18 182.183 16.34V28.28C182.183 28.44 182.128 28.555 182.018 28.625C181.908 28.695 181.783 28.73 181.643 28.73C181.503 28.73 181.378 28.695 181.268 28.625C181.158 28.555 181.103 28.44 181.103 28.28V20.975H178.418C178.288 20.975 178.193 20.93 178.133 20.84C178.073 20.75 178.043 20.635 178.043 20.495C178.043 20.365 178.073 20.255 178.133 20.165C178.193 20.075 178.288 20.03 178.418 20.03H181.103V16.34C181.103 16.18 181.158 16.065 181.268 15.995C181.378 15.925 181.503 15.89 181.643 15.89Z" fill="#333333"/>
<rect x="113" y="9" width="79" height="28" rx="14" stroke="#B9B9B9"/>
<rect x="201" y="9" width="79" height="28" rx="14" fill="white"/>
<path d="M212.13 16.715C212.27 16.725 212.375 16.77 212.445 16.85C212.515 16.92 212.54 17.025 212.52 17.165L212.16 19.73H214.38L214.77 17.09C214.8 16.82 214.97 16.695 215.28 16.715C215.41 16.725 215.51 16.77 215.58 16.85C215.65 16.92 215.675 17.025 215.655 17.165L215.295 19.73H216.54C216.68 19.73 216.78 19.775 216.84 19.865C216.9 19.955 216.93 20.065 216.93 20.195C216.93 20.315 216.9 20.42 216.84 20.51C216.78 20.6 216.68 20.645 216.54 20.645H215.16L214.77 23.495H216.045C216.185 23.495 216.285 23.54 216.345 23.63C216.405 23.72 216.435 23.83 216.435 23.96C216.435 24.08 216.405 24.185 216.345 24.275C216.285 24.365 216.185 24.41 216.045 24.41H214.65L214.275 27.095C214.245 27.365 214.075 27.485 213.765 27.455C213.625 27.445 213.52 27.405 213.45 27.335C213.38 27.255 213.355 27.145 213.375 27.005L213.735 24.41H211.5L211.14 27.095C211.09 27.365 210.915 27.485 210.615 27.455C210.485 27.445 210.385 27.405 210.315 27.335C210.245 27.255 210.22 27.145 210.24 27.005L210.6 24.41H209.355C209.215 24.41 209.115 24.365 209.055 24.275C208.995 24.185 208.965 24.08 208.965 23.96C208.965 23.83 208.995 23.72 209.055 23.63C209.115 23.54 209.215 23.495 209.355 23.495H210.72L211.125 20.645H209.835C209.705 20.645 209.61 20.6 209.55 20.51C209.49 20.42 209.46 20.315 209.46 20.195C209.46 20.065 209.49 19.955 209.55 19.865C209.61 19.775 209.705 19.73 209.835 19.73H211.245L211.62 17.09C211.64 16.95 211.695 16.85 211.785 16.79C211.875 16.73 211.99 16.705 212.13 16.715ZM213.87 23.495L214.275 20.645H212.025L211.635 23.495H213.87ZM223.826 16.775C224.216 16.775 224.486 16.85 224.636 17C224.786 17.14 224.861 17.4 224.861 17.78V19.58C224.861 20.12 224.796 20.575 224.666 20.945C224.546 21.305 224.296 21.65 223.916 21.98C223.536 22.31 222.991 22.655 222.281 23.015C221.581 23.365 220.651 23.79 219.491 24.29C219.371 24.34 219.251 24.345 219.131 24.305C219.011 24.265 218.916 24.18 218.846 24.05C218.786 23.94 218.761 23.815 218.771 23.675C218.791 23.535 218.871 23.435 219.011 23.375C219.921 22.995 220.666 22.675 221.246 22.415C221.836 22.145 222.306 21.9 222.656 21.68C223.016 21.46 223.271 21.255 223.421 21.065C223.581 20.865 223.686 20.64 223.736 20.39L218.996 20.615C218.856 20.625 218.751 20.585 218.681 20.495C218.621 20.405 218.586 20.295 218.576 20.165C218.566 20.035 218.591 19.92 218.651 19.82C218.711 19.72 218.806 19.67 218.936 19.67L223.796 19.505V17.99C223.796 17.8 223.701 17.705 223.511 17.705H219.326C219.186 17.705 219.086 17.66 219.026 17.57C218.966 17.48 218.936 17.37 218.936 17.24C218.936 17.1 218.966 16.99 219.026 16.91C219.086 16.82 219.186 16.775 219.326 16.775H223.826ZM228.686 15.89C228.826 15.89 228.951 15.925 229.061 15.995C229.171 16.065 229.226 16.18 229.226 16.34V25.49C229.226 25.65 229.171 25.765 229.061 25.835C228.951 25.905 228.826 25.94 228.686 25.94C228.546 25.94 228.421 25.905 228.311 25.835C228.201 25.765 228.146 25.65 228.146 25.49V20.495H224.426V19.55H228.146V16.34C228.146 16.18 228.201 16.065 228.311 15.995C228.421 15.925 228.546 15.89 228.686 15.89ZM221.216 24.86C221.356 24.86 221.481 24.895 221.591 24.965C221.711 25.035 221.771 25.15 221.771 25.31V28.16C221.771 28.34 221.866 28.43 222.056 28.43H229.226C229.366 28.43 229.466 28.475 229.526 28.565C229.586 28.665 229.616 28.78 229.616 28.91C229.616 29.04 229.586 29.15 229.526 29.24C229.466 29.34 229.366 29.39 229.226 29.39H221.696C221.306 29.39 221.036 29.315 220.886 29.165C220.736 29.025 220.661 28.765 220.661 28.385V25.31C220.661 25.15 220.716 25.035 220.826 24.965C220.946 24.895 221.076 24.86 221.216 24.86ZM239.653 24.08C239.763 24.06 239.858 24.09 239.938 24.17C240.028 24.24 240.083 24.34 240.103 24.47C240.123 24.61 240.103 24.73 240.043 24.83C239.993 24.93 239.908 24.99 239.788 25.01C239.278 25.08 238.748 25.14 238.198 25.19C237.658 25.23 237.083 25.265 236.473 25.295C235.863 25.315 235.213 25.33 234.523 25.34C233.843 25.35 233.108 25.355 232.318 25.355C232.178 25.355 232.078 25.31 232.018 25.22C231.958 25.13 231.928 25.02 231.928 24.89C231.928 24.77 231.958 24.665 232.018 24.575C232.078 24.475 232.178 24.425 232.318 24.425H233.608V17.93H232.423C232.293 17.93 232.198 17.885 232.138 17.795C232.078 17.705 232.048 17.595 232.048 17.465C232.048 17.335 232.078 17.225 232.138 17.135C232.198 17.045 232.293 17 232.423 17H239.383C239.513 17 239.608 17.045 239.668 17.135C239.728 17.225 239.758 17.335 239.758 17.465C239.758 17.595 239.728 17.705 239.668 17.795C239.608 17.885 239.513 17.93 239.383 17.93H238.228V24.26C238.468 24.24 238.703 24.215 238.933 24.185C239.173 24.155 239.413 24.12 239.653 24.08ZM234.658 24.425C235.518 24.415 236.358 24.385 237.178 24.335V17.93H234.658V24.425ZM242.338 15.89C242.478 15.89 242.603 15.925 242.713 15.995C242.823 16.065 242.878 16.18 242.878 16.34V28.28C242.878 28.44 242.823 28.555 242.713 28.625C242.603 28.695 242.478 28.73 242.338 28.73C242.198 28.73 242.073 28.695 241.963 28.625C241.853 28.555 241.798 28.44 241.798 28.28V21.455H239.758C239.628 21.455 239.533 21.41 239.473 21.32C239.413 21.23 239.383 21.115 239.383 20.975C239.383 20.845 239.413 20.735 239.473 20.645C239.533 20.545 239.628 20.495 239.758 20.495H241.798V16.34C241.798 16.18 241.853 16.065 241.963 15.995C242.073 15.925 242.198 15.89 242.338 15.89ZM250.815 16.715C251.205 16.715 251.475 16.79 251.625 16.94C251.775 17.08 251.85 17.34 251.85 17.72V19.715C251.85 20.095 251.775 20.36 251.625 20.51C251.475 20.65 251.205 20.72 250.815 20.72H247.515C247.405 20.72 247.33 20.74 247.29 20.78C247.25 20.81 247.23 20.88 247.23 20.99V22.64C247.23 22.82 247.325 22.91 247.515 22.91C248.575 22.91 249.565 22.885 250.485 22.835C251.405 22.785 252.305 22.695 253.185 22.565C253.305 22.545 253.405 22.575 253.485 22.655C253.565 22.735 253.615 22.84 253.635 22.97C253.655 23.11 253.635 23.235 253.575 23.345C253.525 23.445 253.44 23.505 253.32 23.525C252.55 23.635 251.675 23.72 250.695 23.78C249.715 23.83 248.545 23.855 247.185 23.855C246.795 23.855 246.525 23.785 246.375 23.645C246.225 23.495 246.15 23.23 246.15 22.85V20.81C246.15 20.43 246.225 20.17 246.375 20.03C246.525 19.88 246.795 19.805 247.185 19.805H250.5C250.6 19.805 250.67 19.79 250.71 19.76C250.76 19.72 250.785 19.645 250.785 19.535V17.93C250.785 17.82 250.76 17.75 250.71 17.72C250.67 17.68 250.6 17.66 250.5 17.66H246.525C246.395 17.66 246.3 17.615 246.24 17.525C246.18 17.425 246.15 17.31 246.15 17.18C246.15 17.05 246.18 16.94 246.24 16.85C246.3 16.76 246.395 16.715 246.525 16.715H250.815ZM255.99 15.89C256.13 15.89 256.255 15.925 256.365 15.995C256.475 16.065 256.53 16.18 256.53 16.34V25.49C256.53 25.65 256.475 25.765 256.365 25.835C256.255 25.905 256.13 25.94 255.99 25.94C255.85 25.94 255.725 25.905 255.615 25.835C255.505 25.765 255.45 25.65 255.45 25.49V20.465H253.185C253.045 20.465 252.945 20.42 252.885 20.33C252.825 20.23 252.795 20.11 252.795 19.97C252.795 19.84 252.825 19.73 252.885 19.64C252.945 19.55 253.045 19.505 253.185 19.505H255.45V16.34C255.45 16.18 255.505 16.065 255.615 15.995C255.725 15.925 255.85 15.89 255.99 15.89ZM248.52 25.22C248.66 25.22 248.785 25.255 248.895 25.325C249.015 25.395 249.075 25.51 249.075 25.67V28.16C249.075 28.34 249.17 28.43 249.36 28.43H256.53C256.67 28.43 256.77 28.475 256.83 28.565C256.89 28.665 256.92 28.78 256.92 28.91C256.92 29.04 256.89 29.15 256.83 29.24C256.77 29.34 256.67 29.39 256.53 29.39H249C248.61 29.39 248.34 29.315 248.19 29.165C248.04 29.025 247.965 28.765 247.965 28.385V25.67C247.965 25.51 248.02 25.395 248.13 25.325C248.25 25.255 248.38 25.22 248.52 25.22ZM265.218 16.52C265.358 16.52 265.483 16.56 265.593 16.64C265.713 16.71 265.773 16.825 265.773 16.985V17.96C265.773 18.31 265.793 18.62 265.833 18.89C265.883 19.16 265.963 19.405 266.073 19.625C266.183 19.835 266.338 20.035 266.538 20.225C266.738 20.415 266.988 20.61 267.288 20.81C267.738 21.1 268.208 21.395 268.698 21.695C269.198 21.985 269.728 22.285 270.288 22.595C270.398 22.645 270.458 22.74 270.468 22.88C270.478 23.02 270.448 23.145 270.378 23.255C270.308 23.365 270.213 23.445 270.093 23.495C269.973 23.545 269.858 23.535 269.748 23.465C269.278 23.205 268.788 22.93 268.278 22.64C267.778 22.34 267.313 22.05 266.883 21.77C266.323 21.42 265.923 21.115 265.683 20.855C265.443 20.585 265.293 20.35 265.233 20.15H265.218C265.158 20.36 265.008 20.6 264.768 20.87C264.528 21.13 264.128 21.435 263.568 21.785C263.128 22.065 262.658 22.355 262.158 22.655C261.658 22.945 261.173 23.22 260.703 23.48C260.583 23.55 260.463 23.56 260.343 23.51C260.233 23.46 260.138 23.375 260.058 23.255C259.988 23.145 259.958 23.02 259.968 22.88C259.978 22.74 260.038 22.645 260.148 22.595C260.708 22.285 261.233 21.985 261.723 21.695C262.223 21.395 262.698 21.1 263.148 20.81C263.448 20.61 263.698 20.415 263.898 20.225C264.098 20.035 264.253 19.835 264.363 19.625C264.473 19.405 264.548 19.16 264.588 18.89C264.638 18.62 264.663 18.31 264.663 17.96V16.985C264.663 16.825 264.718 16.71 264.828 16.64C264.948 16.56 265.078 16.52 265.218 16.52ZM271.083 26.375C271.223 26.375 271.323 26.425 271.383 26.525C271.443 26.615 271.473 26.73 271.473 26.87C271.473 27 271.443 27.11 271.383 27.2C271.323 27.29 271.223 27.335 271.083 27.335H259.353C259.213 27.335 259.113 27.29 259.053 27.2C258.993 27.11 258.963 27 258.963 26.87C258.963 26.73 258.993 26.615 259.053 26.525C259.113 26.425 259.213 26.375 259.353 26.375H271.083Z" fill="#333333"/>
<rect x="201" y="9" width="79" height="28" rx="14" stroke="#B9B9B9"/>
<rect x="75.5" y="46" width="79" height="28" rx="14" fill="white"/>
<path d="M86.63 53.715C86.77 53.725 86.875 53.77 86.945 53.85C87.015 53.92 87.04 54.025 87.02 54.165L86.66 56.73H88.88L89.27 54.09C89.3 53.82 89.47 53.695 89.78 53.715C89.91 53.725 90.01 53.77 90.08 53.85C90.15 53.92 90.175 54.025 90.155 54.165L89.795 56.73H91.04C91.18 56.73 91.28 56.775 91.34 56.865C91.4 56.955 91.43 57.065 91.43 57.195C91.43 57.315 91.4 57.42 91.34 57.51C91.28 57.6 91.18 57.645 91.04 57.645H89.66L89.27 60.495H90.545C90.685 60.495 90.785 60.54 90.845 60.63C90.905 60.72 90.935 60.83 90.935 60.96C90.935 61.08 90.905 61.185 90.845 61.275C90.785 61.365 90.685 61.41 90.545 61.41H89.15L88.775 64.095C88.745 64.365 88.575 64.485 88.265 64.455C88.125 64.445 88.02 64.405 87.95 64.335C87.88 64.255 87.855 64.145 87.875 64.005L88.235 61.41H86L85.64 64.095C85.59 64.365 85.415 64.485 85.115 64.455C84.985 64.445 84.885 64.405 84.815 64.335C84.745 64.255 84.72 64.145 84.74 64.005L85.1 61.41H83.855C83.715 61.41 83.615 61.365 83.555 61.275C83.495 61.185 83.465 61.08 83.465 60.96C83.465 60.83 83.495 60.72 83.555 60.63C83.615 60.54 83.715 60.495 83.855 60.495H85.22L85.625 57.645H84.335C84.205 57.645 84.11 57.6 84.05 57.51C83.99 57.42 83.96 57.315 83.96 57.195C83.96 57.065 83.99 56.955 84.05 56.865C84.11 56.775 84.205 56.73 84.335 56.73H85.745L86.12 54.09C86.14 53.95 86.195 53.85 86.285 53.79C86.375 53.73 86.49 53.705 86.63 53.715ZM88.37 60.495L88.775 57.645H86.525L86.135 60.495H88.37ZM103.261 53.91C103.381 53.91 103.471 53.955 103.531 54.045C103.591 54.135 103.621 54.245 103.621 54.375C103.621 54.505 103.591 54.615 103.531 54.705C103.471 54.795 103.381 54.84 103.261 54.84H101.551V59.505H103.336C103.466 59.505 103.561 59.55 103.621 59.64C103.681 59.73 103.711 59.84 103.711 59.97C103.711 60.1 103.681 60.21 103.621 60.3C103.561 60.39 103.466 60.435 103.336 60.435H94.1855C94.0555 60.435 93.9605 60.39 93.9005 60.3C93.8405 60.21 93.8105 60.1 93.8105 59.97C93.8105 59.84 93.8405 59.73 93.9005 59.64C93.9605 59.55 94.0555 59.505 94.1855 59.505H95.9705V54.84H94.2605C94.1405 54.84 94.0505 54.795 93.9905 54.705C93.9305 54.615 93.9005 54.505 93.9005 54.375C93.9005 54.245 93.9305 54.135 93.9905 54.045C94.0505 53.955 94.1405 53.91 94.2605 53.91H103.261ZM100.486 59.505V54.84H97.0355V59.505H100.486ZM104.626 63.375C104.766 63.375 104.866 63.425 104.926 63.525C104.986 63.615 105.016 63.73 105.016 63.87C105.016 64 104.986 64.11 104.926 64.2C104.866 64.29 104.766 64.335 104.626 64.335H92.8955C92.7555 64.335 92.6555 64.29 92.5955 64.2C92.5355 64.11 92.5055 64 92.5055 63.87C92.5055 63.73 92.5355 63.615 92.5955 63.525C92.6555 63.425 92.7555 63.375 92.8955 63.375H104.626ZM115.788 53.7C116.178 53.7 116.448 53.775 116.598 53.925C116.748 54.065 116.823 54.325 116.823 54.705V56.655C116.823 57.035 116.748 57.3 116.598 57.45C116.448 57.59 116.178 57.66 115.788 57.66H109.353C109.163 57.66 109.068 57.755 109.068 57.945V59.52C109.068 59.7 109.163 59.79 109.353 59.79H116.808C116.938 59.79 117.033 59.835 117.093 59.925C117.153 60.015 117.183 60.125 117.183 60.255C117.183 60.385 117.153 60.5 117.093 60.6C117.033 60.69 116.938 60.735 116.808 60.735H109.023C108.633 60.735 108.363 60.665 108.213 60.525C108.063 60.375 107.988 60.11 107.988 59.73V57.765C107.988 57.385 108.063 57.125 108.213 56.985C108.363 56.835 108.633 56.76 109.023 56.76H115.473C115.663 56.76 115.758 56.665 115.758 56.475V54.915C115.758 54.725 115.663 54.63 115.473 54.63H108.333C108.203 54.63 108.108 54.585 108.048 54.495C107.988 54.405 107.958 54.295 107.958 54.165C107.958 54.035 107.988 53.925 108.048 53.835C108.108 53.745 108.203 53.7 108.333 53.7H115.788ZM112.968 63.39H118.278C118.418 63.39 118.518 63.435 118.578 63.525C118.638 63.615 118.668 63.73 118.668 63.87C118.668 64 118.638 64.11 118.578 64.2C118.518 64.29 118.418 64.335 118.278 64.335H106.548C106.408 64.335 106.308 64.29 106.248 64.2C106.188 64.11 106.158 64 106.158 63.87C106.158 63.73 106.188 63.615 106.248 63.525C106.308 63.435 106.408 63.39 106.548 63.39H111.873V60.225H112.968V63.39ZM125.975 53.79C126.115 53.79 126.215 53.835 126.275 53.925C126.335 54.015 126.365 54.125 126.365 54.255C126.365 54.395 126.335 54.51 126.275 54.6C126.215 54.69 126.115 54.735 125.975 54.735H123.77V55.695C123.77 55.955 123.78 56.19 123.8 56.4C123.83 56.61 123.875 56.805 123.935 56.985C124.005 57.165 124.1 57.345 124.22 57.525C124.34 57.695 124.495 57.875 124.685 58.065C125.005 58.355 125.29 58.615 125.54 58.845C125.8 59.075 126.045 59.29 126.275 59.49C126.385 59.57 126.435 59.68 126.425 59.82C126.425 59.96 126.385 60.08 126.305 60.18C126.215 60.29 126.105 60.355 125.975 60.375C125.855 60.395 125.735 60.35 125.615 60.24C125.415 60.07 125.195 59.885 124.955 59.685C124.725 59.475 124.485 59.25 124.235 59.01C123.885 58.68 123.64 58.42 123.5 58.23C123.37 58.03 123.29 57.855 123.26 57.705H123.245C123.205 57.865 123.115 58.045 122.975 58.245C122.845 58.435 122.6 58.7 122.24 59.04C121.93 59.33 121.65 59.59 121.4 59.82C121.15 60.04 120.885 60.265 120.605 60.495C120.495 60.595 120.375 60.635 120.245 60.615C120.115 60.585 120.005 60.515 119.915 60.405C119.825 60.315 119.78 60.2 119.78 60.06C119.78 59.92 119.83 59.81 119.93 59.73C120.23 59.48 120.535 59.22 120.845 58.95C121.155 58.67 121.465 58.38 121.775 58.08C121.965 57.89 122.12 57.71 122.24 57.54C122.36 57.37 122.455 57.195 122.525 57.015C122.595 56.825 122.64 56.63 122.66 56.43C122.68 56.22 122.69 55.985 122.69 55.725V54.735H120.38C120.25 54.735 120.155 54.69 120.095 54.6C120.035 54.51 120.005 54.395 120.005 54.255C120.005 54.125 120.035 54.015 120.095 53.925C120.155 53.835 120.25 53.79 120.38 53.79H125.975ZM128.21 52.965C128.34 52.965 128.455 53 128.555 53.07C128.665 53.14 128.72 53.25 128.72 53.4V60.42C128.72 60.57 128.665 60.68 128.555 60.75C128.455 60.81 128.34 60.84 128.21 60.84C128.07 60.84 127.945 60.81 127.835 60.75C127.735 60.68 127.685 60.57 127.685 60.42V57.36H125.915C125.775 57.36 125.675 57.315 125.615 57.225C125.555 57.135 125.525 57.02 125.525 56.88C125.525 56.75 125.555 56.64 125.615 56.55C125.675 56.46 125.775 56.415 125.915 56.415H127.685V53.4C127.685 53.25 127.735 53.14 127.835 53.07C127.945 53 128.07 52.965 128.21 52.965ZM130.85 52.89C130.99 52.89 131.11 52.925 131.21 52.995C131.32 53.065 131.375 53.175 131.375 53.325V60.495C131.375 60.645 131.32 60.755 131.21 60.825C131.11 60.885 130.99 60.915 130.85 60.915C130.72 60.915 130.6 60.885 130.49 60.825C130.39 60.755 130.34 60.645 130.34 60.495V53.325C130.34 53.175 130.39 53.065 130.49 52.995C130.6 52.925 130.72 52.89 130.85 52.89ZM130.34 61.68C130.73 61.68 131 61.755 131.15 61.905C131.3 62.045 131.375 62.305 131.375 62.685V66.27C131.375 66.43 131.315 66.545 131.195 66.615C131.085 66.685 130.96 66.72 130.82 66.72C130.68 66.72 130.555 66.685 130.445 66.615C130.335 66.545 130.28 66.43 130.28 66.27V62.895C130.28 62.715 130.185 62.625 129.995 62.625H122.6C122.47 62.625 122.375 62.58 122.315 62.49C122.255 62.4 122.225 62.29 122.225 62.16C122.225 62.02 122.255 61.905 122.315 61.815C122.375 61.725 122.47 61.68 122.6 61.68H130.34ZM143.783 53.76C143.913 53.76 144.008 53.805 144.068 53.895C144.128 53.985 144.158 54.095 144.158 54.225C144.158 54.355 144.128 54.465 144.068 54.555C144.008 54.645 143.913 54.69 143.783 54.69H136.613C136.423 54.69 136.328 54.785 136.328 54.975V56.85H143.633C143.763 56.85 143.858 56.895 143.918 56.985C143.978 57.075 144.008 57.18 144.008 57.3C144.008 57.42 143.978 57.53 143.918 57.63C143.858 57.72 143.763 57.765 143.633 57.765H136.328V59.64C136.328 59.83 136.423 59.925 136.613 59.925H144.068C144.198 59.925 144.293 59.97 144.353 60.06C144.413 60.15 144.443 60.26 144.443 60.39C144.443 60.52 144.413 60.63 144.353 60.72C144.293 60.81 144.198 60.855 144.068 60.855H136.283C135.893 60.855 135.623 60.785 135.473 60.645C135.323 60.495 135.248 60.23 135.248 59.85V54.765C135.248 54.385 135.323 54.125 135.473 53.985C135.623 53.835 135.893 53.76 136.283 53.76H143.783ZM145.583 63.375C145.723 63.375 145.823 63.425 145.883 63.525C145.943 63.615 145.973 63.73 145.973 63.87C145.973 64 145.943 64.11 145.883 64.2C145.823 64.29 145.723 64.335 145.583 64.335H133.853C133.713 64.335 133.613 64.29 133.553 64.2C133.493 64.11 133.463 64 133.463 63.87C133.463 63.73 133.493 63.615 133.553 63.525C133.613 63.425 133.713 63.375 133.853 63.375H145.583Z" fill="#333333"/>
<rect x="75.5" y="46" width="79" height="28" rx="14" stroke="#B9B9B9"/>
<rect x="163.5" y="46" width="52" height="28" rx="14" fill="#FFFBDC"/>
<path d="M174.63 53.715C174.77 53.725 174.875 53.77 174.945 53.85C175.015 53.92 175.04 54.025 175.02 54.165L174.66 56.73H176.88L177.27 54.09C177.3 53.82 177.47 53.695 177.78 53.715C177.91 53.725 178.01 53.77 178.08 53.85C178.15 53.92 178.175 54.025 178.155 54.165L177.795 56.73H179.04C179.18 56.73 179.28 56.775 179.34 56.865C179.4 56.955 179.43 57.065 179.43 57.195C179.43 57.315 179.4 57.42 179.34 57.51C179.28 57.6 179.18 57.645 179.04 57.645H177.66L177.27 60.495H178.545C178.685 60.495 178.785 60.54 178.845 60.63C178.905 60.72 178.935 60.83 178.935 60.96C178.935 61.08 178.905 61.185 178.845 61.275C178.785 61.365 178.685 61.41 178.545 61.41H177.15L176.775 64.095C176.745 64.365 176.575 64.485 176.265 64.455C176.125 64.445 176.02 64.405 175.95 64.335C175.88 64.255 175.855 64.145 175.875 64.005L176.235 61.41H174L173.64 64.095C173.59 64.365 173.415 64.485 173.115 64.455C172.985 64.445 172.885 64.405 172.815 64.335C172.745 64.255 172.72 64.145 172.74 64.005L173.1 61.41H171.855C171.715 61.41 171.615 61.365 171.555 61.275C171.495 61.185 171.465 61.08 171.465 60.96C171.465 60.83 171.495 60.72 171.555 60.63C171.615 60.54 171.715 60.495 171.855 60.495H173.22L173.625 57.645H172.335C172.205 57.645 172.11 57.6 172.05 57.51C171.99 57.42 171.96 57.315 171.96 57.195C171.96 57.065 171.99 56.955 172.05 56.865C172.11 56.775 172.205 56.73 172.335 56.73H173.745L174.12 54.09C174.14 53.95 174.195 53.85 174.285 53.79C174.375 53.73 174.49 53.705 174.63 53.715ZM176.37 60.495L176.775 57.645H174.525L174.135 60.495H176.37ZM185.186 56.4C186.196 56.4 186.976 56.61 187.526 57.03C188.086 57.44 188.366 57.985 188.366 58.665C188.366 59.345 188.086 59.895 187.526 60.315C186.976 60.725 186.196 60.93 185.186 60.93C184.166 60.93 183.376 60.725 182.816 60.315C182.266 59.895 181.991 59.345 181.991 58.665C181.991 57.985 182.266 57.44 182.816 57.03C183.376 56.61 184.166 56.4 185.186 56.4ZM185.186 57.285C184.466 57.285 183.921 57.415 183.551 57.675C183.181 57.935 182.996 58.265 182.996 58.665C182.996 59.075 183.181 59.41 183.551 59.67C183.921 59.93 184.466 60.06 185.186 60.06C185.906 60.06 186.446 59.93 186.806 59.67C187.176 59.41 187.361 59.075 187.361 58.665C187.361 58.265 187.176 57.935 186.806 57.675C186.446 57.415 185.906 57.285 185.186 57.285ZM185.186 52.935C185.326 52.935 185.451 52.97 185.561 53.04C185.671 53.11 185.726 53.225 185.726 53.385V54.495H188.846C188.976 54.495 189.071 54.54 189.131 54.63C189.191 54.72 189.221 54.83 189.221 54.96C189.221 55.1 189.191 55.215 189.131 55.305C189.071 55.395 188.976 55.44 188.846 55.44H181.406C181.276 55.44 181.181 55.395 181.121 55.305C181.061 55.215 181.031 55.1 181.031 54.96C181.031 54.83 181.061 54.72 181.121 54.63C181.181 54.54 181.276 54.495 181.406 54.495H184.631V53.385C184.631 53.225 184.686 53.11 184.796 53.04C184.916 52.97 185.046 52.935 185.186 52.935ZM191.366 52.89C191.506 52.89 191.631 52.925 191.741 52.995C191.851 53.065 191.906 53.18 191.906 53.34V65.28C191.906 65.44 191.851 65.555 191.741 65.625C191.631 65.695 191.506 65.73 191.366 65.73C191.226 65.73 191.101 65.695 190.991 65.625C190.881 65.555 190.826 65.44 190.826 65.28V53.34C190.826 53.18 190.881 53.065 190.991 52.995C191.101 52.925 191.226 52.89 191.366 52.89ZM185.726 62.61C186.326 62.59 186.931 62.56 187.541 62.52C188.151 62.48 188.786 62.43 189.446 62.37C189.566 62.36 189.661 62.395 189.731 62.475C189.801 62.545 189.841 62.65 189.851 62.79C189.871 62.92 189.851 63.035 189.791 63.135C189.731 63.225 189.646 63.275 189.536 63.285C188.136 63.405 186.751 63.49 185.381 63.54C184.021 63.59 182.591 63.615 181.091 63.615C180.951 63.615 180.851 63.57 180.791 63.48C180.731 63.39 180.701 63.28 180.701 63.15C180.701 63.02 180.731 62.91 180.791 62.82C180.851 62.73 180.951 62.685 181.091 62.685C181.691 62.685 182.281 62.685 182.861 62.685C183.451 62.685 184.046 62.675 184.646 62.655V60.48H185.726V62.61ZM203.848 53.88C204.238 53.88 204.508 53.955 204.658 54.105C204.808 54.245 204.883 54.505 204.883 54.885V56.265C204.883 56.725 204.868 57.16 204.838 57.57C204.818 57.98 204.783 58.38 204.733 58.77C204.693 59.15 204.638 59.525 204.568 59.895C204.508 60.265 204.438 60.635 204.358 61.005C204.328 61.145 204.253 61.245 204.133 61.305C204.013 61.355 203.873 61.37 203.713 61.35C203.573 61.32 203.458 61.26 203.368 61.17C203.288 61.08 203.263 60.97 203.293 60.84C203.453 60.08 203.578 59.335 203.668 58.605C203.758 57.875 203.803 57.08 203.803 56.22V55.125C203.803 54.935 203.708 54.84 203.518 54.84H196.138C196.008 54.84 195.913 54.795 195.853 54.705C195.793 54.615 195.763 54.5 195.763 54.36C195.763 54.22 195.793 54.105 195.853 54.015C195.913 53.925 196.008 53.88 196.138 53.88H203.848ZM199.498 58.215C199.638 58.215 199.763 58.25 199.873 58.32C199.983 58.39 200.038 58.505 200.038 58.665V63.39H206.278C206.418 63.39 206.518 63.435 206.578 63.525C206.638 63.615 206.668 63.73 206.668 63.87C206.668 64 206.638 64.11 206.578 64.2C206.518 64.29 206.418 64.335 206.278 64.335H194.548C194.408 64.335 194.308 64.29 194.248 64.2C194.188 64.11 194.158 64 194.158 63.87C194.158 63.73 194.188 63.615 194.248 63.525C194.308 63.435 194.408 63.39 194.548 63.39H198.958V58.665C198.958 58.505 199.013 58.39 199.123 58.32C199.233 58.25 199.358 58.215 199.498 58.215Z" fill="#333333"/>
<rect x="163.5" y="46" width="52" height="28" rx="14" stroke="#FFE071"/>
</svg>
