<svg width="81" height="76" viewBox="0 0 81 76" fill="none" xmlns="http://www.w3.org/2000/svg">
<path d="M64.7363 47.143L19.4747 47.143L19.4747 25.9922L64.7363 25.9922L64.7363 29.1548L64.7353 33.732L64.7353 34.2056L64.7353 38.9303L64.7363 43.5456L64.7363 47.143Z" fill="#FFFBDC"/>
<path d="M64.7383 25.9918L74.8131 25.9918L74.8131 47.1426L64.7383 47.1426L64.7383 25.9918Z" fill="#FFE071"/>
<path d="M64.7363 43.5456L64.7363 47.143L19.4747 47.143L19.4747 25.9922L64.7363 25.9922L64.7363 29.1548M64.7353 33.732L64.7353 34.2056M64.7353 38.9303L64.7358 38.5988" stroke="#333333" stroke-width="2" stroke-linecap="round" stroke-linejoin="round"/>
<path d="M64.7383 47.1426L74.8131 47.1426L74.8131 25.9918L64.7383 25.9918" stroke="#333333" stroke-width="2" stroke-linecap="round" stroke-linejoin="round"/>
<path d="M27.3457 33.4697L30.3371 33.4697" stroke="#333333" stroke-width="2" stroke-linecap="round"/>
<path d="M34.2686 33.4697L50.0117 33.4697" stroke="#333333" stroke-width="2" stroke-linecap="round"/>
<path d="M27.3463 39.666L58.2705 39.666" stroke="#333333" stroke-width="2" stroke-linecap="round"/>
<rect x="14.4756" y="53.1689" width="45.262" height="21.1508" fill="#E8E8E8"/>
<rect width="10.0764" height="21.1508" transform="matrix(-0.961988 -0.273092 -0.273092 0.961988 79.6304 54.5371)" fill="#D9D9D9"/>
<path d="M59.7373 70.7224L59.7373 74.3198L14.4757 74.3198L14.4757 53.1689L59.7373 53.1689L59.7373 56.3316M59.7362 60.9087L59.7362 61.3824M59.7362 66.1071L59.7368 65.7756" stroke="#333333" stroke-width="2" stroke-linecap="round" stroke-linejoin="round"/>
<path d="M64.1626 72.1328L73.8544 74.8842L79.6306 54.5373L69.9387 51.786" stroke="#333333" stroke-width="2" stroke-linecap="round" stroke-linejoin="round"/>
<path d="M22.3462 60.6455L25.3376 60.6455" stroke="#333333" stroke-width="2" stroke-linecap="round"/>
<path d="M29.269 60.6455L45.0122 60.6455" stroke="#333333" stroke-width="2" stroke-linecap="round"/>
<path d="M22.3468 66.8428L53.271 66.8428" stroke="#333333" stroke-width="2" stroke-linecap="round"/>
<rect width="55.0594" height="20.8573" transform="matrix(-0.959272 0.282485 0.282485 0.959272 54.731 1.00586)" fill="white"/>
<path d="M44.8626 3.85421L54.4205 1.03961L57.375 11.0725L60.3294 21.1053L50.7715 23.9199L44.8626 3.85421Z" fill="#FE4949"/>
<path d="M50.7715 23.9199L60.3294 21.1053L57.375 11.0725L54.4205 1.03961L44.8626 3.85421" stroke="#333333" stroke-width="2" stroke-linecap="round" stroke-linejoin="round"/>
<path d="M49.7667 20.5074L50.7717 23.9202L7.83214 36.565L1.92323 16.4993L44.8628 3.85449L45.7463 6.85485M47.024 11.1975L47.1564 11.6468M48.4763 16.1292L48.3842 15.8145" stroke="#333333" stroke-width="2" stroke-linecap="round" stroke-linejoin="round"/>
<path d="M11.4771 21.3945L14.315 20.5588" stroke="#333333" stroke-width="2" stroke-linecap="round"/>
<path d="M18.0449 19.46L32.9804 15.0618" stroke="#333333" stroke-width="2" stroke-linecap="round"/>
<path d="M13.2087 27.2731L42.5464 18.6338" stroke="#333333" stroke-width="2" stroke-linecap="round"/>
</svg>
