<svg width="31" height="31" viewBox="0 0 31 31" fill="none" xmlns="http://www.w3.org/2000/svg">
<path fill-rule="evenodd" clip-rule="evenodd" d="M27.2822 15.7202C27.2822 14.8693 27.2058 14.0511 27.064 13.2656H15.7622V17.9074H22.2204C21.9422 19.4074 21.0968 20.6784 19.8258 21.5293V24.5402H23.704C25.9731 22.4511 27.2822 19.3747 27.2822 15.7202Z" fill="#4285F4"/>
<path fill-rule="evenodd" clip-rule="evenodd" d="M15.7622 27.4475C19.0022 27.4475 21.7186 26.373 23.704 24.5403L19.8258 21.5294C18.7513 22.2494 17.3768 22.6748 15.7622 22.6748C12.6368 22.6748 9.9913 20.5639 9.04767 17.7275H5.03857V20.8366C7.01312 24.7584 11.0713 27.4475 15.7622 27.4475Z" fill="#34A853"/>
<path fill-rule="evenodd" clip-rule="evenodd" d="M9.04766 17.7277C8.80766 17.0077 8.6713 16.2386 8.6713 15.4477C8.6713 14.6568 8.80766 13.8877 9.04766 13.1677V10.0586H5.03857C4.22584 11.6786 3.76221 13.5113 3.76221 15.4477C3.76221 17.384 4.22584 19.2168 5.03857 20.8368L9.04766 17.7277Z" fill="#FBBC05"/>
<path fill-rule="evenodd" clip-rule="evenodd" d="M15.7622 8.21999C17.524 8.21999 19.1058 8.82545 20.3495 10.0145L23.7913 6.57272C21.7131 4.63636 18.9968 3.44727 15.7622 3.44727C11.0713 3.44727 7.01312 6.13636 5.03857 10.0582L9.04767 13.1673C9.9913 10.3309 12.6368 8.21999 15.7622 8.21999Z" fill="#EA4335"/>
</svg>
