<svg width="151" height="35" viewBox="0 0 151 35" fill="none" xmlns="http://www.w3.org/2000/svg">
<path d="M20.1188 30.1707L14.2087 20.2107L12.1087 20.4207V29.5407L5.71875 30.8007V5.30071H12.1087V14.8107L13.1888 14.6907L20.3888 5.30071H27.2887L19.0088 16.6707L27.4088 30.1707H20.1188Z" fill="#EB3636"/>
<path d="M29.4499 30.1707V5.30071H47.1199V10.9107H35.8099V14.9907L45.8899 13.9107V19.5207L35.8099 20.6007V24.8907L47.4199 23.5707V30.1707H29.4499Z" fill="#EB3636"/>
<path d="M50.1882 30.1707V5.30071H67.8582V10.9107H56.5482V14.9907L66.6282 13.9107V19.5207L56.5482 20.6007V24.8907L68.1582 23.5707V30.1707H50.1882Z" fill="#EB3636"/>
<path d="M70.9265 30.8007V5.30071H83.0465C84.4465 5.30071 85.6665 5.52071 86.7065 5.96071C87.7665 6.40071 88.6465 7.00071 89.3465 7.76071C90.0665 8.52071 90.6065 9.41071 90.9665 10.4307C91.3265 11.4307 91.5065 12.5007 91.5065 13.6407C91.5065 14.7807 91.3465 15.8507 91.0265 16.8507C90.7065 17.8507 90.2065 18.7507 89.5265 19.5507C88.8665 20.3307 88.0165 20.9907 86.9765 21.5307C85.9565 22.0507 84.7465 22.3907 83.3465 22.5507L77.2865 23.2707V29.5407L70.9265 30.8007ZM81.9965 17.1807C82.9565 17.0807 83.7165 16.7707 84.2765 16.2507C84.8565 15.7307 85.1465 14.9907 85.1465 14.0307C85.1465 13.0907 84.8565 12.3407 84.2765 11.7807C83.7165 11.2007 82.9565 10.9107 81.9965 10.9107H77.2865V17.6607L81.9965 17.1807Z" fill="#EB3636"/>
<path d="M115.361 16.2807C115.361 14.3207 114.921 12.8107 114.041 11.7507C113.181 10.6707 112.031 10.1307 110.591 10.1307C109.151 10.1307 107.991 10.6707 107.111 11.7507C106.251 12.8107 105.821 14.3207 105.821 16.2807V19.1907C105.821 21.1107 106.251 22.6207 107.111 23.7207C107.991 24.8007 109.151 25.3407 110.591 25.3407C112.031 25.3407 113.181 24.8007 114.041 23.7207C114.921 22.6207 115.361 21.1107 115.361 19.1907V16.2807ZM121.751 18.7407C121.791 20.6407 121.541 22.3407 121.001 23.8407C120.481 25.3207 119.741 26.5807 118.781 27.6207C117.821 28.6607 116.661 29.4607 115.301 30.0207C113.961 30.6007 112.481 30.9107 110.861 30.9507C109.241 30.9907 107.741 30.7507 106.361 30.2307C105.001 29.7307 103.811 28.9807 102.791 27.9807C101.791 26.9807 101.001 25.7507 100.421 24.2907C99.841 22.8107 99.531 21.1307 99.491 19.2507L99.431 16.7307C99.391 14.8507 99.631 13.1707 100.151 11.6907C100.691 10.1907 101.441 8.92071 102.401 7.88071C103.361 6.82071 104.511 6.01071 105.851 5.45071C107.211 4.87071 108.701 4.56071 110.321 4.52071C111.941 4.50071 113.431 4.74071 114.791 5.24071C116.171 5.74071 117.361 6.50071 118.361 7.52071C119.381 8.52071 120.181 9.76071 120.761 11.2407C121.341 12.7007 121.651 14.3707 121.691 16.2507L121.751 18.7407Z" fill="#EB3636"/>
<path d="M139.029 30.4707H138.999V30.4107L130.599 15.3507V29.4807L124.239 30.8007V5.30071H130.599L138.999 20.6007V5.30071H145.359V29.1807L139.029 30.4707Z" fill="#EB3636"/>
</svg>
